<svg xmlns="http://www.w3.org/2000/svg" width="1100" height="910" viewBox="0 0 1100 910">
<rect width="100%" height="100%" fill="white"/>
<text x="95" y="35" font-family="sans-serif" font-size="22" font-weight="bold">pickup-carry-slow-r06</text>
<text x="95" y="62" font-family="sans-serif" font-size="13">pickup_carry | PASS | core=PCA20072-carrier-R0 | surface=unspecified</text>
<text x="95" y="85" font-family="sans-serif" font-size="14">BMI270 accel |a| (m/s²)</text>
<rect x="95" y="95" width="975" height="145" fill="none" stroke="black" stroke-width="1"/>
<polyline points="95.00,194.62 96.30,194.56 97.60,194.58 98.91,194.59 100.21,194.53 101.51,194.48 102.81,194.56 104.11,194.30 105.42,194.40 106.72,194.44 108.02,194.62 109.32,194.52 110.62,194.50 111.92,194.61 113.22,194.62 114.53,194.44 115.83,194.53 117.13,194.57 118.43,194.68 119.74,194.59 121.03,194.58 122.34,194.47 123.64,194.58 124.94,194.42 126.24,194.59 127.54,194.63 128.85,194.49 130.15,194.53 131.45,194.67 132.75,194.61 134.05,194.24 135.35,194.59 136.66,194.63 137.96,194.57 139.26,194.29 140.56,194.65 141.86,194.52 143.16,194.49 144.47,194.47 145.77,194.64 147.07,194.59 148.37,194.60 149.67,194.56 150.97,194.60 152.28,194.45 153.58,194.51 154.88,194.59 156.18,194.41 157.48,194.44 158.79,194.52 160.09,194.66 161.39,194.55 162.69,194.52 163.99,194.52 165.30,194.46 166.59,194.50 167.90,194.49 169.20,194.44 170.50,194.50 171.80,194.51 173.10,194.49 174.41,194.53 175.71,194.47 177.01,194.53 178.31,194.38 179.61,194.55 180.92,194.49 182.22,194.53 183.52,194.47 184.82,194.64 186.12,194.56 187.42,194.56 188.73,194.51 190.03,194.56 191.33,194.35 192.63,194.45 193.93,194.40 195.24,194.47 196.54,194.56 197.84,194.59 199.14,194.53 200.44,194.56 201.74,194.53 203.04,194.58 204.35,194.41 205.65,194.54 206.95,194.64 208.25,194.51 209.55,194.56 210.85,194.48 212.16,194.44 213.46,194.49 214.76,194.55 216.06,194.58 217.36,194.52 218.66,194.57 219.97,194.54 221.27,194.44 222.57,194.52 223.87,194.56 225.17,194.47 226.48,194.58 227.78,194.57 229.08,194.50 230.38,194.59 231.68,194.58 232.98,194.43 234.29,194.53 235.59,194.46 236.89,194.61 238.19,194.64 239.49,194.49 240.79,194.58 242.10,194.47 243.40,194.50 244.70,194.63 246.00,194.43 247.30,194.51 248.60,194.45 249.91,194.54 251.21,194.53 252.51,194.61 253.81,194.45 255.11,194.56 256.42,194.57 257.72,194.54 259.02,194.57 260.32,194.43 261.62,194.67 262.92,194.66 264.23,194.54 265.53,194.59 266.83,194.62 268.13,194.39 269.43,194.52 270.74,194.43 272.04,194.42 273.33,194.51 274.64,194.55 275.94,194.44 277.25,194.56 278.55,194.48 279.85,194.62 281.17,194.60 282.45,194.51 283.75,194.44 285.08,194.61 286.36,194.55 287.66,194.59 288.96,194.58 290.26,194.48 291.56,194.50 292.87,194.52 294.17,194.50 295.47,194.55 296.77,194.47 298.07,194.63 299.37,194.59 300.67,194.60 301.98,194.61 303.28,194.43 304.58,194.65 305.88,194.54 307.18,194.50 308.48,194.55 309.79,194.59 311.09,194.48 312.39,194.51 313.69,194.68 314.99,194.41 316.29,194.45 317.60,194.67 318.90,194.46 320.20,194.58 321.50,194.34 322.80,194.49 324.10,194.52 325.41,194.49 326.71,194.44 328.01,194.44 329.31,194.58 330.61,194.47 331.92,194.62 333.22,194.54 334.52,194.46 335.82,194.50 337.12,194.46 338.42,194.49 339.73,194.45 341.03,194.74 342.33,194.62 343.63,194.65 344.93,194.37 346.24,194.53 347.54,194.39 348.84,194.36 350.14,194.52 351.44,194.47 352.74,135.77 354.04,95.00 355.35,95.30 356.65,142.74 357.95,160.88 359.25,162.99 360.55,165.89 361.86,165.85 363.16,158.62 364.46,149.30 365.76,157.29 367.06,162.67 368.36,165.13 369.67,168.79 370.97,151.63 372.27,144.04 373.57,151.96 374.87,157.23 376.18,156.48 377.48,152.90 378.78,159.58 380.08,168.11 381.38,171.43 382.68,186.10 383.98,198.31 385.29,200.25 386.59,217.80 387.89,212.34 389.19,211.87 390.50,206.92 391.80,206.06 393.10,205.15 394.40,212.33 395.70,223.35 397.00,201.75 398.30,236.94 399.61,223.73 400.91,225.62 402.21,227.46 403.51,229.40 404.81,226.42 406.12,224.98 407.42,220.70 408.72,212.38 410.02,213.00 411.32,210.45 412.62,192.60 413.92,184.48 415.23,178.65 416.53,190.35 417.83,185.48 419.13,178.31 420.43,175.44 421.73,175.56 423.04,172.62 424.34,171.14 425.64,172.98 426.94,176.04 428.25,178.78 429.55,177.37 430.85,172.38 432.15,168.91 433.45,163.28 434.75,155.17 436.06,146.28 437.36,147.97 438.66,154.90 439.96,165.11 441.26,168.58 442.56,162.87 443.86,151.64 445.17,139.91 446.47,122.14 447.77,104.19 449.07,95.65 450.38,99.62 451.68,115.36 452.98,130.21 454.28,146.72 455.58,162.66 456.88,167.82 458.18,183.67 459.49,197.35 460.79,208.29 462.09,199.99 463.39,206.73 464.69,233.13 466.00,213.21 467.30,235.06 468.60,223.99 469.90,230.80 471.20,223.36 472.50,227.87 473.80,214.21 475.11,219.64 476.41,205.43 477.71,178.52 479.01,166.63 480.31,165.94 481.61,159.35 482.92,156.42 484.22,151.23 485.52,152.17 486.82,149.24 488.13,147.06 489.43,148.69 490.73,150.07 492.03,143.98 493.33,165.14 494.63,160.95 495.94,177.07 497.24,185.22 498.54,185.29 499.84,185.40 501.14,188.79 502.44,189.15 503.75,197.59 505.05,197.38 506.35,199.16 507.65,197.64 508.95,194.47 510.25,192.38 511.55,189.45 512.86,182.15 514.16,177.31 515.46,171.06 516.76,164.38 518.06,160.89 519.36,153.43 520.67,148.58 521.97,148.28 523.27,146.16 524.57,155.94 525.87,160.80 527.18,163.46 528.48,155.78 529.78,165.98 531.08,162.70 532.38,164.19 533.68,170.73 534.99,179.44 536.29,183.78 537.59,184.56 538.89,186.45 540.19,191.61 541.49,194.78 542.80,203.08 544.10,224.04 545.40,195.17 546.70,210.02 548.00,202.01 549.31,202.30 550.61,210.66 551.91,203.39 553.21,188.31 554.51,169.19 555.81,167.82 557.12,172.21 558.42,168.62 559.72,187.45 561.02,215.30 562.32,223.95 563.62,211.26 564.93,193.93 566.23,182.27 567.53,165.68 568.83,167.61 570.13,167.72 571.43,166.72 572.74,168.81 574.04,172.10 575.34,177.63 576.64,177.81 577.94,181.77 579.25,185.98 580.55,183.83 581.85,199.12 583.15,187.01 584.45,197.97 585.76,180.90 587.06,174.67 588.36,170.48 589.66,167.42 590.96,173.85 592.26,168.76 593.57,175.99 594.87,174.76 596.17,169.74 597.47,168.94 598.77,166.69 600.07,146.33 601.37,143.50 602.68,141.40 603.98,140.01 605.28,148.49 606.58,150.71 607.88,162.30 609.19,171.19 610.49,175.29 611.79,181.20 613.09,198.14 614.39,181.99 615.69,186.48 616.99,191.22 618.30,192.50 619.60,198.94 620.90,207.96 622.20,207.50 623.51,211.83 624.81,223.48 626.10,240.00 627.41,223.27 628.71,216.61 630.01,211.94 631.31,211.08 632.62,203.61 633.92,186.13 635.22,179.12 636.52,192.72 637.82,183.42 639.13,184.92 640.43,178.98 641.73,185.44 643.03,184.78 644.33,186.41 645.64,184.55 646.94,175.70 648.24,178.07 649.54,191.18 650.84,191.93 652.14,186.50 653.44,191.80 654.75,197.74 656.05,195.48 657.35,190.00 658.65,192.95 659.95,195.32 661.25,191.73 662.56,191.79 663.86,194.54 665.16,193.75 666.46,192.81 667.76,194.62 669.06,194.71 670.37,195.50 671.67,191.28 672.97,194.51 674.28,179.28 675.57,193.74 676.88,194.62 678.18,194.83 679.48,194.32 680.78,194.45 682.08,194.75 683.38,194.34 684.69,194.18 685.99,196.31 687.29,194.20 688.59,194.01 689.89,195.05 691.19,195.26 692.50,195.56 693.80,196.12 695.10,196.36 696.40,196.66 697.70,194.16 699.01,191.53 700.31,192.28 701.61,190.85 702.91,193.48 704.21,194.17 705.51,190.87 706.81,183.22 708.12,195.34 709.42,194.40 710.72,199.03 712.02,193.70 713.32,194.96 714.63,195.52 715.93,196.64 717.23,193.38 718.53,194.73 719.83,193.18 721.14,194.02 722.44,193.63 723.74,193.10 725.04,193.36 726.34,197.73 727.64,197.34 728.94,198.95 730.25,179.17 731.55,192.23 732.85,197.13 734.15,197.01 735.45,192.64 736.75,194.97 738.06,194.10 739.36,197.62 740.66,197.78 741.96,192.41 743.27,194.47 744.57,194.35 745.87,195.51 747.17,195.98 748.47,197.47 749.77,193.50 751.07,195.96 752.38,195.62 753.68,194.09 754.98,195.09 756.28,195.78 757.58,195.84 758.89,193.52 760.19,192.70 761.49,194.24 762.79,194.11 764.09,194.08 765.39,193.99 766.69,193.06 768.00,195.01 769.30,194.75 770.60,194.69 771.90,194.47 773.20,136.26 774.50,204.10 775.81,166.94 777.11,191.04 778.41,197.05 779.71,193.36 781.02,195.89 782.31,189.68 783.62,196.72 784.92,195.68 786.22,193.56 787.52,194.97 788.82,194.67 790.13,194.62 791.43,195.07 792.73,195.07 794.03,193.63 795.33,195.22 796.63,193.77 797.94,195.35 799.24,194.32 800.54,195.83 801.84,196.58 803.14,194.04 804.45,195.89 805.75,195.91 807.05,193.82 808.35,194.22 809.65,194.25 810.96,195.62 812.25,194.37 813.56,195.15 814.86,196.15 816.16,195.73 817.46,193.85 818.76,194.19 820.07,194.14 821.37,195.00 822.67,195.93 823.97,198.03 825.27,193.17 826.57,193.45 827.88,193.62 829.18,194.19 830.48,193.49 831.78,198.37 833.08,194.90 834.38,193.84 835.69,194.17 836.99,196.29 838.29,194.99 839.59,193.90 840.89,197.08 842.19,193.24 843.50,193.93 844.80,193.91 846.10,198.02 847.40,193.31 848.70,194.42 850.01,193.96 851.31,198.49 852.61,193.53 853.91,193.79 855.21,196.30 856.52,193.87 857.82,194.19 859.12,195.85 860.42,194.12 861.72,194.73 863.02,195.86 864.33,194.50 865.63,194.63 866.93,194.80 868.23,195.38 869.53,194.83 870.83,195.19 872.13,194.51 873.44,194.84 874.74,194.88 876.04,195.09 877.34,194.84 878.65,194.92 879.95,194.78 881.25,194.78 882.55,195.05 883.85,194.83 885.15,195.26 886.46,194.84 887.76,194.91 889.06,194.84 890.36,194.87 891.66,195.10 892.96,194.83 894.26,194.96 895.57,194.91 896.87,194.95 898.17,195.01 899.47,194.98 900.77,194.89 902.07,195.13 903.38,194.86 904.68,194.82 905.98,195.13 907.28,194.83 908.58,195.13 909.88,195.16 911.19,194.86 912.49,195.13 913.79,194.90 915.09,195.04 916.39,194.88 917.70,195.00 919.00,195.02 920.30,194.84 921.60,194.97 922.90,195.08 924.20,194.88 925.51,195.02 926.81,195.05 928.11,195.03 929.41,194.97 930.71,194.77 932.01,195.10 933.32,194.93 934.62,194.94 935.92,194.91 937.22,194.99 938.52,194.91 939.83,194.89 941.13,195.15 942.43,194.90 943.73,194.95 945.03,194.98 946.33,195.01 947.63,195.06 948.94,194.99 950.24,194.98 951.54,194.92 952.84,195.00 954.15,195.00 955.45,194.95 956.75,194.79 958.05,194.93 959.35,194.95 960.65,194.98 961.95,194.88 963.26,195.02 964.56,194.95 965.86,194.82 967.16,195.05 968.47,194.94 969.77,195.13 971.07,194.88 972.37,195.03 973.67,194.84 974.98,194.97 976.27,194.99 977.57,194.83 978.88,195.00 980.18,194.69 981.48,195.07 982.78,194.96 984.08,195.08 985.39,194.92 986.69,194.78 987.99,195.07 989.29,194.86 990.59,194.77 991.90,194.94 993.20,194.96 994.50,195.00 995.80,194.99 997.10,195.02 998.40,194.92 999.70,194.93 1001.01,194.93 1002.31,194.93 1003.61,194.99 1004.91,195.14 1006.21,194.81 1007.51,195.04 1008.82,194.95 1010.12,194.97 1011.42,194.81 1012.72,195.09 1014.02,195.05 1015.33,195.17 1016.63,194.85 1017.93,195.00 1019.23,194.90 1020.53,195.04 1021.83,195.08 1023.14,195.01 1024.44,194.92 1025.74,195.00 1027.04,195.00 1028.34,195.07 1029.64,194.88 1030.95,194.81 1032.25,194.91 1033.55,194.91 1034.85,194.85 1036.15,194.99 1037.46,194.92 1038.76,194.81 1040.06,194.88 1041.36,195.08 1042.66,195.13 1043.97,195.07 1045.26,194.89 1046.57,194.80 1047.87,194.85 1049.17,195.01 1050.47,195.02 1051.77,194.99 1053.08,194.98 1054.38,195.07 1055.68,195.13 1056.98,194.83 1058.28,194.76 1059.58,194.91 1060.89,195.18 1062.19,194.87 1063.49,195.10 1064.79,194.83 1066.09,194.87 1067.39,194.95 1068.70,194.97 1070.00,194.98" fill="none" stroke="black" stroke-width="1.5"/>
<text x="87" y="107" text-anchor="end" font-family="monospace" font-size="11">21</text>
<text x="87" y="240" text-anchor="end" font-family="monospace" font-size="11">4.9</text>
<text x="95" y="275" font-family="sans-serif" font-size="14">BMI270 gyro |ω| (rad/s)</text>
<rect x="95" y="285" width="975" height="145" fill="none" stroke="black" stroke-width="1"/>
<polyline points="95.00,429.86 96.30,429.82 97.60,429.93 98.91,429.89 100.21,429.85 101.51,429.91 102.81,429.93 104.11,429.96 105.42,429.87 106.72,429.87 108.02,429.84 109.32,429.89 110.62,429.92 111.92,429.89 113.22,429.65 114.53,429.69 115.83,429.74 117.13,429.70 118.43,429.81 119.74,429.83 121.03,429.86 122.34,429.91 123.64,429.95 124.94,429.88 126.24,429.94 127.54,429.94 128.85,429.91 130.15,429.94 131.45,429.97 132.75,429.96 134.05,429.96 135.35,429.93 136.66,429.93 137.96,429.98 139.26,429.91 140.56,429.96 141.86,429.94 143.16,429.95 144.47,429.94 145.77,429.93 147.07,429.94 148.37,429.96 149.67,429.96 150.97,429.96 152.28,429.95 153.58,429.95 154.88,429.97 156.18,429.97 157.48,429.94 158.79,429.96 160.09,429.95 161.39,429.93 162.69,429.97 163.99,429.95 165.30,429.95 166.59,429.97 167.90,429.96 169.20,429.95 170.50,429.93 171.80,429.97 173.10,429.98 174.41,429.94 175.71,429.95 177.01,429.93 178.31,429.96 179.61,429.96 180.92,429.96 182.22,429.98 183.52,429.97 184.82,429.95 186.12,429.96 187.42,429.95 188.73,429.98 190.03,429.96 191.33,429.95 192.63,429.95 193.93,429.96 195.24,429.97 196.54,429.96 197.84,429.94 199.14,429.99 200.44,429.96 201.74,429.96 203.04,429.96 204.35,429.98 205.65,429.95 206.95,429.97 208.25,429.97 209.55,429.95 210.85,429.93 212.16,429.98 213.46,429.94 214.76,429.93 216.06,429.95 217.36,429.99 218.66,429.96 219.97,429.93 221.27,429.96 222.57,429.95 223.87,429.97 225.17,429.95 226.48,429.95 227.78,429.96 229.08,429.94 230.38,429.98 231.68,429.96 232.98,429.95 234.29,429.97 235.59,429.95 236.89,429.96 238.19,429.95 239.49,429.93 240.79,429.96 242.10,429.96 243.40,429.96 244.70,429.93 246.00,429.93 247.30,429.95 248.60,429.96 249.91,429.92 251.21,429.96 252.51,429.96 253.81,429.96 255.11,429.96 256.42,429.96 257.72,429.96 259.02,429.95 260.32,429.96 261.62,429.99 262.92,429.96 264.23,429.95 265.53,429.98 266.83,429.95 268.13,429.91 269.43,429.96 270.74,429.99 272.04,429.90 273.33,429.97 274.64,429.90 275.94,429.96 277.25,429.93 278.55,429.92 279.85,429.98 281.17,429.97 282.45,429.96 283.75,429.95 285.08,429.94 286.36,429.96 287.66,429.97 288.96,429.99 290.26,429.93 291.56,429.96 292.87,429.96 294.17,429.94 295.47,429.96 296.77,429.95 298.07,429.95 299.37,429.96 300.67,429.96 301.98,429.96 303.28,429.96 304.58,429.94 305.88,429.97 307.18,429.95 308.48,429.95 309.79,429.96 311.09,429.96 312.39,429.95 313.69,429.94 314.99,429.96 316.29,429.96 317.60,429.94 318.90,429.98 320.20,429.96 321.50,429.96 322.80,429.95 324.10,429.95 325.41,429.96 326.71,429.98 328.01,429.95 329.31,429.99 330.61,429.97 331.92,429.94 333.22,429.92 334.52,429.98 335.82,429.97 337.12,429.96 338.42,429.97 339.73,429.94 341.03,429.98 342.33,429.93 343.63,429.97 344.93,429.94 346.24,429.96 347.54,429.93 348.84,429.96 350.14,429.96 351.44,429.93 352.74,414.03 354.04,387.29 355.35,405.53 356.65,388.47 357.95,392.05 359.25,410.27 360.55,410.90 361.86,412.20 363.16,404.67 364.46,400.39 365.76,393.78 367.06,396.10 368.36,389.12 369.67,393.12 370.97,389.33 372.27,400.14 373.57,402.32 374.87,398.91 376.18,375.46 377.48,362.77 378.78,362.26 380.08,370.48 381.38,381.60 382.68,395.44 383.98,402.70 385.29,394.20 386.59,335.63 387.89,332.11 389.19,325.93 390.50,338.16 391.80,356.58 393.10,374.37 394.40,382.72 395.70,384.30 397.00,360.17 398.30,347.94 399.61,349.72 400.91,353.89 402.21,348.58 403.51,368.64 404.81,383.25 406.12,385.81 407.42,387.86 408.72,384.69 410.02,377.10 411.32,376.27 412.62,370.23 413.92,368.56 415.23,375.04 416.53,360.76 417.83,361.30 419.13,369.65 420.43,371.71 421.73,367.28 423.04,369.32 424.34,374.67 425.64,380.96 426.94,387.99 428.25,396.03 429.55,404.26 430.85,412.57 432.15,414.00 433.45,410.67 434.75,404.11 436.06,395.48 437.36,376.22 438.66,356.30 439.96,341.84 441.26,332.00 442.56,326.17 443.86,318.63 445.17,309.49 446.47,296.99 447.77,286.16 449.07,285.00 450.38,296.54 451.68,310.20 452.98,329.30 454.28,346.57 455.58,353.51 456.88,359.07 458.18,367.50 459.49,370.81 460.79,367.88 462.09,361.65 463.39,370.56 464.69,360.36 466.00,383.15 467.30,406.11 468.60,407.01 469.90,404.41 471.20,387.64 472.50,371.51 473.80,349.64 475.11,332.92 476.41,348.37 477.71,355.40 479.01,360.95 480.31,375.36 481.61,367.36 482.92,352.85 484.22,330.85 485.52,305.84 486.82,303.72 488.13,306.64 489.43,310.99 490.73,315.10 492.03,312.58 493.33,316.18 494.63,348.18 495.94,350.46 497.24,357.47 498.54,376.29 499.84,372.85 501.14,385.83 502.44,392.59 503.75,393.89 505.05,404.21 506.35,408.02 507.65,411.92 508.95,414.20 510.25,406.40 511.55,399.44 512.86,399.91 514.16,401.68 515.46,397.20 516.76,392.20 518.06,389.14 519.36,381.78 520.67,376.53 521.97,371.12 523.27,362.69 524.57,357.11 525.87,353.02 527.18,346.76 528.48,341.89 529.78,352.77 531.08,352.28 532.38,353.73 533.68,355.94 534.99,351.73 536.29,347.53 537.59,346.87 538.89,350.72 540.19,358.61 541.49,366.61 542.80,380.49 544.10,386.70 545.40,387.76 546.70,394.53 548.00,395.46 549.31,401.18 550.61,395.60 551.91,386.92 553.21,383.81 554.51,391.17 555.81,405.06 557.12,412.91 558.42,412.45 559.72,404.96 561.02,399.92 562.32,391.12 563.62,379.43 564.93,363.63 566.23,355.40 567.53,351.49 568.83,348.74 570.13,348.57 571.43,350.63 572.74,358.53 574.04,367.81 575.34,370.90 576.64,373.96 577.94,371.44 579.25,376.80 580.55,362.93 581.85,336.50 583.15,308.94 584.45,307.97 585.76,306.11 587.06,327.77 588.36,343.67 589.66,351.25 590.96,367.21 592.26,369.58 593.57,366.72 594.87,351.09 596.17,351.28 597.47,355.61 598.77,378.21 600.07,382.90 601.37,352.44 602.68,349.74 603.98,339.20 605.28,356.24 606.58,365.73 607.88,360.48 609.19,358.31 610.49,369.08 611.79,364.76 613.09,364.03 614.39,366.59 615.69,362.73 616.99,364.01 618.30,375.96 619.60,382.09 620.90,386.81 622.20,378.37 623.51,359.68 624.81,382.40 626.10,404.75 627.41,398.97 628.71,397.12 630.01,414.35 631.31,410.59 632.62,409.97 633.92,410.20 635.22,404.75 636.52,410.05 637.82,412.63 639.13,406.80 640.43,402.69 641.73,405.00 643.03,422.46 644.33,425.70 645.64,424.23 646.94,419.89 648.24,408.57 649.54,399.23 650.84,423.46 652.14,423.39 653.44,425.07 654.75,421.67 656.05,422.72 657.35,419.06 658.65,421.73 659.95,422.67 661.25,424.15 662.56,422.81 663.86,427.09 665.16,424.70 666.46,423.90 667.76,423.61 669.06,424.57 670.37,424.10 671.67,420.72 672.97,422.41 674.28,425.12 675.57,425.43 676.88,428.37 678.18,426.93 679.48,426.78 680.78,427.34 682.08,427.04 683.38,427.88 684.69,426.14 685.99,424.93 687.29,420.88 688.59,424.94 689.89,422.86 691.19,420.61 692.50,417.26 693.80,412.15 695.10,404.67 696.40,395.00 697.70,384.24 699.01,379.72 700.31,379.69 701.61,381.56 702.91,379.43 704.21,378.40 705.51,374.98 706.81,365.94 708.12,366.97 709.42,368.64 710.72,400.79 712.02,395.17 713.32,394.57 714.63,391.03 715.93,385.54 717.23,378.11 718.53,378.08 719.83,377.94 721.14,381.23 722.44,376.54 723.74,373.85 725.04,373.32 726.34,376.53 727.64,380.76 728.94,371.93 730.25,358.14 731.55,373.60 732.85,373.75 734.15,365.76 735.45,361.80 736.75,363.16 738.06,366.32 739.36,369.78 740.66,370.11 741.96,373.59 743.27,379.74 744.57,383.68 745.87,381.95 747.17,371.81 748.47,373.59 749.77,379.27 751.07,384.02 752.38,383.26 753.68,378.18 754.98,378.35 756.28,385.39 757.58,392.59 758.89,393.70 760.19,398.52 761.49,406.24 762.79,411.36 764.09,412.98 765.39,411.12 766.69,406.00 768.00,405.93 769.30,405.89 770.60,403.67 771.90,399.17 773.20,373.02 774.50,321.64 775.81,373.56 777.11,399.35 778.41,412.93 779.71,416.69 781.02,423.89 782.31,412.49 783.62,422.27 784.92,427.21 786.22,423.58 787.52,427.61 788.82,427.36 790.13,428.11 791.43,429.22 792.73,429.40 794.03,427.36 795.33,423.71 796.63,417.64 797.94,425.04 799.24,421.05 800.54,420.47 801.84,420.20 803.14,414.97 804.45,415.59 805.75,415.79 807.05,414.58 808.35,416.67 809.65,413.51 810.96,414.97 812.25,414.50 813.56,407.55 814.86,414.56 816.16,418.37 817.46,420.16 818.76,422.42 820.07,419.63 821.37,414.25 822.67,412.33 823.97,417.96 825.27,410.62 826.57,417.82 827.88,423.40 829.18,417.50 830.48,414.60 831.78,418.12 833.08,415.73 834.38,419.77 835.69,424.14 836.99,423.95 838.29,421.15 839.59,416.17 840.89,419.18 842.19,417.68 843.50,427.15 844.80,420.09 846.10,423.21 847.40,419.57 848.70,427.65 850.01,422.81 851.31,424.49 852.61,421.17 853.91,428.20 855.21,422.58 856.52,422.87 857.82,426.86 859.12,425.45 860.42,428.28 861.72,429.16 863.02,428.56 864.33,429.56 865.63,428.97 866.93,429.36 868.23,429.57 869.53,429.53 870.83,429.89 872.13,429.60 873.44,429.62 874.74,429.91 876.04,429.83 877.34,429.78 878.65,429.83 879.95,429.68 881.25,429.70 882.55,429.85 883.85,429.95 885.15,429.96 886.46,429.95 887.76,429.88 889.06,429.83 890.36,429.88 891.66,429.91 892.96,430.00 894.26,429.94 895.57,429.94 896.87,429.93 898.17,429.91 899.47,429.96 900.77,429.92 902.07,429.98 903.38,429.95 904.68,429.96 905.98,429.95 907.28,429.93 908.58,429.98 909.88,429.94 911.19,429.99 912.49,429.96 913.79,429.96 915.09,429.93 916.39,429.93 917.70,429.95 919.00,429.93 920.30,429.98 921.60,429.96 922.90,429.96 924.20,429.93 925.51,429.98 926.81,429.95 928.11,429.94 929.41,429.96 930.71,429.95 932.01,429.96 933.32,429.97 934.62,429.98 935.92,429.98 937.22,429.93 938.52,429.93 939.83,429.94 941.13,429.98 942.43,429.95 943.73,429.96 945.03,429.98 946.33,429.96 947.63,429.97 948.94,429.93 950.24,429.94 951.54,429.95 952.84,429.94 954.15,429.98 955.45,429.96 956.75,429.99 958.05,429.95 959.35,429.96 960.65,429.99 961.95,429.95 963.26,429.96 964.56,429.96 965.86,429.96 967.16,429.93 968.47,429.93 969.77,429.96 971.07,429.93 972.37,429.94 973.67,429.95 974.98,429.99 976.27,429.93 977.57,429.96 978.88,429.99 980.18,429.95 981.48,429.95 982.78,429.94 984.08,429.96 985.39,429.96 986.69,429.95 987.99,429.92 989.29,429.96 990.59,429.96 991.90,429.96 993.20,429.96 994.50,429.98 995.80,429.93 997.10,429.96 998.40,429.93 999.70,429.96 1001.01,429.95 1002.31,429.96 1003.61,429.94 1004.91,429.95 1006.21,429.92 1007.51,429.96 1008.82,429.96 1010.12,429.95 1011.42,429.95 1012.72,429.96 1014.02,429.96 1015.33,429.96 1016.63,429.93 1017.93,429.96 1019.23,429.93 1020.53,429.95 1021.83,429.96 1023.14,429.94 1024.44,429.94 1025.74,429.96 1027.04,429.95 1028.34,429.95 1029.64,429.94 1030.95,429.95 1032.25,429.97 1033.55,429.96 1034.85,429.96 1036.15,429.96 1037.46,429.95 1038.76,429.95 1040.06,429.95 1041.36,429.96 1042.66,429.95 1043.97,429.95 1045.26,429.96 1046.57,429.93 1047.87,429.98 1049.17,429.96 1050.47,429.93 1051.77,429.92 1053.08,429.98 1054.38,429.93 1055.68,429.96 1056.98,429.95 1058.28,429.96 1059.58,429.95 1060.89,429.96 1062.19,429.93 1063.49,429.95 1064.79,429.95 1066.09,429.95 1067.39,429.96 1068.70,429.93 1070.00,429.93" fill="none" stroke="black" stroke-width="1.5"/>
<text x="87" y="297" text-anchor="end" font-family="monospace" font-size="11">7.34</text>
<text x="87" y="430" text-anchor="end" font-family="monospace" font-size="11">0.00639</text>
<text x="95" y="465" font-family="sans-serif" font-size="14">Jerk magnitude (m/s³)</text>
<rect x="95" y="475" width="975" height="145" fill="none" stroke="black" stroke-width="1"/>
<polyline points="95.00,620.00 96.30,619.88 97.60,619.97 98.91,619.98 100.21,619.89 101.51,619.89 102.81,619.82 104.11,619.45 105.42,619.79 106.72,619.91 108.02,619.62 109.32,619.79 110.62,619.94 111.92,619.77 113.22,619.96 114.53,619.62 115.83,619.81 117.13,619.91 118.43,619.77 119.74,619.80 121.03,619.98 122.34,619.75 123.64,619.75 124.94,619.66 126.24,619.65 127.54,619.90 128.85,619.71 130.15,619.93 131.45,619.70 132.75,619.88 134.05,619.21 135.35,619.26 136.66,619.91 137.96,619.88 139.26,619.39 140.56,619.22 141.86,619.73 143.16,619.94 144.47,619.96 145.77,619.65 147.07,619.91 148.37,619.98 149.67,619.90 150.97,619.91 152.28,619.68 153.58,619.86 154.88,619.85 156.18,619.62 157.48,619.93 158.79,619.84 160.09,619.70 161.39,619.79 162.69,619.93 163.99,619.99 165.30,619.86 166.59,619.91 167.90,619.98 169.20,619.88 170.50,619.86 171.80,619.99 173.10,619.97 174.41,619.93 175.71,619.87 177.01,619.87 178.31,619.69 179.61,619.65 180.92,619.89 182.22,619.91 183.52,619.87 184.82,619.64 186.12,619.82 187.42,619.98 188.73,619.89 190.03,619.90 191.33,619.56 192.63,619.78 193.93,619.88 195.24,619.85 196.54,619.80 197.84,619.95 199.14,619.87 200.44,619.92 201.74,619.92 203.04,619.89 204.35,619.63 205.65,619.72 206.95,619.77 208.25,619.71 209.55,619.88 210.85,619.82 212.16,619.92 213.46,619.90 214.76,619.86 216.06,619.94 217.36,619.86 218.66,619.87 219.97,619.93 221.27,619.78 222.57,619.82 223.87,619.92 225.17,619.81 226.48,619.77 227.78,619.97 229.08,619.86 230.38,619.80 231.68,619.97 232.98,619.67 234.29,619.77 235.59,619.84 236.89,619.67 238.19,619.95 239.49,619.69 240.79,619.81 242.10,619.75 243.40,619.93 244.70,619.72 246.00,619.58 247.30,619.83 248.60,619.87 249.91,619.81 251.21,619.97 252.51,619.83 253.81,619.65 255.11,619.75 256.42,619.99 257.72,619.94 259.02,619.93 260.32,619.70 261.62,619.49 262.92,619.97 264.23,619.74 265.53,619.89 266.83,619.92 268.13,619.51 269.43,619.72 270.74,619.81 272.04,619.97 273.33,619.81 274.64,619.91 275.94,619.77 277.25,619.74 278.55,619.82 279.85,619.70 281.17,619.96 282.45,619.81 283.75,619.85 285.08,619.64 286.36,619.87 287.66,619.91 288.96,619.98 290.26,619.77 291.56,619.95 292.87,619.97 294.17,619.97 295.47,619.91 296.77,619.83 298.07,619.66 299.37,619.91 300.67,619.96 301.98,619.99 303.28,619.62 304.58,619.53 305.88,619.76 307.18,619.92 308.48,619.90 309.79,619.92 311.09,619.77 312.39,619.93 313.69,619.64 314.99,619.41 316.29,619.90 317.60,619.54 318.90,619.55 320.20,619.74 321.50,619.49 322.80,619.69 324.10,619.93 325.41,619.94 326.71,619.89 328.01,620.00 329.31,619.70 330.61,619.77 331.92,619.69 333.22,619.83 334.52,619.84 335.82,619.93 337.12,619.92 338.42,619.94 339.73,619.91 341.03,619.38 342.33,619.75 343.63,619.93 344.93,619.40 346.24,619.66 347.54,619.72 348.84,619.93 350.14,619.67 351.44,619.90 352.74,494.54 354.04,532.85 355.35,619.36 356.65,518.60 357.95,581.23 359.25,615.49 360.55,613.78 361.86,619.91 363.16,604.58 364.46,600.07 365.76,602.89 367.06,608.50 368.36,614.75 369.67,612.18 370.97,583.25 372.27,603.81 373.57,603.04 374.87,608.74 376.18,618.39 377.48,612.33 378.78,605.71 380.08,601.76 381.38,612.92 382.68,588.60 383.98,593.91 385.29,615.86 386.59,582.54 387.89,608.32 389.19,619.00 390.50,609.43 391.80,618.16 393.10,618.05 394.40,604.66 395.70,596.47 397.00,573.76 398.30,544.79 399.61,591.77 400.91,615.96 402.21,616.09 403.51,615.83 404.81,613.63 406.12,616.92 407.42,610.85 408.72,602.23 410.02,618.67 411.32,614.53 412.62,581.79 413.92,602.65 415.23,607.54 416.53,595.02 417.83,609.57 419.13,604.66 420.43,613.87 421.73,619.74 423.04,613.74 424.34,616.83 425.64,616.07 426.94,613.47 428.25,614.14 429.55,616.99 430.85,609.30 432.15,612.60 433.45,607.95 434.75,602.67 436.06,601.03 437.36,616.38 438.66,605.18 439.96,598.19 441.26,612.60 442.56,607.76 443.86,596.04 445.17,594.97 446.47,581.97 447.77,581.62 449.07,601.72 450.38,611.55 451.68,586.36 452.98,588.21 454.28,584.71 455.58,585.98 456.88,608.97 458.18,586.06 459.49,590.77 460.79,596.66 462.09,602.26 463.39,605.57 464.69,563.58 466.00,577.49 467.30,573.28 468.60,596.29 469.90,605.44 471.20,604.13 472.50,610.34 473.80,590.80 475.11,608.41 476.41,589.58 477.71,562.68 479.01,594.55 480.31,618.51 481.61,605.93 482.92,613.72 484.22,608.92 485.52,617.97 486.82,613.72 488.13,615.36 489.43,616.51 490.73,617.06 492.03,606.96 493.33,574.84 494.63,611.03 495.94,585.61 497.24,602.57 498.54,619.87 499.84,619.75 501.14,612.76 502.44,619.22 503.75,602.00 505.05,619.55 506.35,616.20 507.65,616.76 508.95,613.23 510.25,615.53 511.55,613.73 512.86,604.39 514.16,609.67 515.46,606.63 516.76,605.76 518.06,612.51 519.36,604.07 520.67,609.65 521.97,619.35 523.27,615.48 524.57,599.07 525.87,609.61 527.18,614.31 528.48,603.57 529.78,598.20 531.08,612.99 532.38,616.82 533.68,606.00 534.99,601.38 536.29,610.72 537.59,618.33 538.89,615.97 540.19,608.96 541.49,613.22 542.80,602.26 544.10,575.26 545.40,558.20 546.70,588.27 548.00,602.88 549.31,619.37 550.61,602.16 551.91,604.42 553.21,587.80 554.51,579.13 555.81,617.08 557.12,610.62 558.42,612.32 559.72,579.77 561.02,560.38 562.32,601.50 563.62,592.87 564.93,583.03 566.23,595.04 567.53,584.59 568.83,615.86 570.13,619.77 571.43,617.85 572.74,615.55 574.04,612.95 575.34,608.18 576.64,619.62 577.94,611.52 579.25,611.02 580.55,615.41 581.85,587.37 583.15,594.10 584.45,596.53 585.76,583.57 587.06,606.67 588.36,611.04 589.66,613.46 590.96,606.26 592.26,609.14 593.57,604.54 594.87,617.37 596.17,609.26 597.47,618.29 598.77,615.21 600.07,576.41 601.37,613.95 602.68,615.51 603.98,617.02 605.28,601.84 606.58,615.27 607.88,595.21 609.19,601.03 610.49,611.24 611.79,607.35 613.09,583.86 614.39,585.48 615.69,610.38 616.99,609.87 618.30,617.28 619.60,606.22 620.90,600.68 622.20,619.02 623.51,610.74 624.81,595.10 626.10,584.58 627.41,584.36 628.71,605.76 630.01,610.03 631.31,618.15 632.62,604.04 633.92,582.68 635.22,605.00 636.52,590.98 637.82,600.08 639.13,616.79 640.43,607.28 641.73,606.20 643.03,618.59 644.33,616.51 645.64,616.03 646.94,601.07 648.24,614.92 649.54,591.97 650.84,618.40 652.14,608.41 653.44,608.66 654.75,607.32 656.05,615.15 657.35,608.29 658.65,613.69 659.95,614.93 661.25,612.33 662.56,619.88 663.86,614.12 665.16,618.32 666.46,617.98 667.76,616.12 669.06,619.81 670.37,618.31 671.67,610.98 672.97,613.10 674.28,587.59 675.57,588.99 676.88,618.11 678.18,619.57 679.48,618.92 680.78,619.72 682.08,619.36 683.38,619.12 684.69,619.66 685.99,615.46 687.29,615.50 688.59,619.60 689.89,617.77 691.19,619.55 692.50,619.37 693.80,618.81 695.10,619.47 696.40,619.36 697.70,614.66 699.01,614.38 700.31,618.39 701.61,616.93 702.91,614.39 704.21,618.53 705.51,612.95 706.81,603.63 708.12,594.08 709.42,617.99 710.72,610.09 712.02,608.59 713.32,617.30 714.63,618.79 715.93,617.62 717.23,613.03 718.53,617.13 719.83,616.69 721.14,618.19 722.44,619.15 723.74,618.87 725.04,619.45 726.34,610.67 727.64,619.17 728.94,616.54 730.25,577.78 731.55,592.03 732.85,609.53 734.15,619.75 735.45,610.65 736.75,615.00 738.06,618.14 739.36,612.48 740.66,619.66 741.96,608.51 743.27,615.62 744.57,619.76 745.87,617.54 747.17,618.99 748.47,616.80 749.77,611.51 751.07,614.73 752.38,619.26 753.68,616.74 754.98,617.87 756.28,618.53 757.58,619.86 758.89,615.05 760.19,618.25 761.49,616.72 762.79,619.73 764.09,619.94 765.39,619.79 766.69,618.01 768.00,615.84 769.30,619.45 770.60,619.87 771.90,619.54 773.20,495.58 774.50,475.00 775.81,540.57 777.11,568.57 778.41,607.15 779.71,612.09 781.02,614.60 782.31,606.72 783.62,604.96 784.92,617.78 786.22,615.47 787.52,616.98 788.82,619.36 790.13,619.88 791.43,619.03 792.73,619.99 794.03,616.92 795.33,616.62 796.63,616.88 797.94,616.62 799.24,617.81 800.54,616.78 801.84,618.39 803.14,614.55 804.45,616.04 805.75,619.96 807.05,615.53 808.35,619.14 809.65,619.92 810.96,617.08 812.25,617.32 813.56,618.33 814.86,617.86 816.16,619.10 817.46,615.97 818.76,619.27 820.07,619.91 821.37,618.17 822.67,618.02 823.97,615.51 825.27,609.62 826.57,619.41 827.88,619.64 829.18,618.78 830.48,618.51 831.78,609.57 833.08,612.56 834.38,617.73 835.69,619.30 836.99,615.46 838.29,617.22 839.59,617.67 840.89,613.20 842.19,611.81 843.50,618.53 844.80,619.94 846.10,611.22 847.40,609.91 848.70,617.63 850.01,619.02 851.31,610.31 852.61,609.40 853.91,619.46 855.21,614.63 856.52,614.83 857.82,619.32 859.12,616.45 860.42,616.30 861.72,618.69 863.02,617.59 864.33,617.11 865.63,619.72 866.93,619.65 868.23,618.75 869.53,618.83 870.83,619.23 872.13,618.55 873.44,619.30 874.74,619.91 876.04,619.56 877.34,619.47 878.65,619.83 879.95,619.69 881.25,620.00 882.55,619.42 883.85,619.54 885.15,619.09 886.46,619.10 887.76,619.84 889.06,619.85 890.36,619.94 891.66,619.50 892.96,619.41 894.26,619.71 895.57,619.89 896.87,619.93 898.17,619.86 899.47,619.93 900.77,619.81 902.07,619.48 903.38,619.42 904.68,619.92 905.98,619.34 907.28,619.35 908.58,619.34 909.88,619.94 911.19,619.35 912.49,619.43 913.79,619.51 915.09,619.70 916.39,619.67 917.70,619.74 919.00,619.97 920.30,619.62 921.60,619.73 922.90,619.77 924.20,619.57 925.51,619.71 926.81,619.94 928.11,619.97 929.41,619.87 930.71,619.57 932.01,619.30 933.32,619.65 934.62,619.98 935.92,619.92 937.22,619.82 938.52,619.82 939.83,619.97 941.13,619.46 942.43,619.47 943.73,619.88 945.03,619.94 946.33,619.94 947.63,619.89 948.94,619.85 950.24,619.99 951.54,619.86 952.84,619.81 954.15,620.00 955.45,619.88 956.75,619.65 958.05,619.69 959.35,619.95 960.65,619.94 961.95,619.79 963.26,619.70 964.56,619.84 965.86,619.72 967.16,619.50 968.47,619.77 969.77,619.60 971.07,619.48 972.37,619.69 973.67,619.59 974.98,619.73 976.27,619.94 977.57,619.66 978.88,619.65 980.18,619.34 981.48,619.18 982.78,619.76 984.08,619.75 985.39,619.68 986.69,619.70 987.99,619.38 989.29,619.56 990.59,619.80 991.90,619.65 993.20,619.95 994.50,619.91 995.80,619.97 997.10,619.92 998.40,619.78 999.70,619.97 1001.01,619.99 1002.31,620.00 1003.61,619.87 1004.91,619.67 1006.21,619.30 1007.51,619.52 1008.82,619.82 1010.12,619.96 1011.42,619.66 1012.72,619.41 1014.02,619.92 1015.33,619.74 1016.63,619.31 1017.93,619.68 1019.23,619.78 1020.53,619.69 1021.83,619.92 1023.14,619.86 1024.44,619.81 1025.74,619.84 1027.04,619.99 1028.34,619.85 1029.64,619.58 1030.95,619.87 1032.25,619.79 1033.55,620.00 1034.85,619.86 1036.15,619.69 1037.46,619.84 1038.76,619.76 1040.06,619.85 1041.36,619.57 1042.66,619.90 1043.97,619.88 1045.26,619.61 1046.57,619.80 1047.87,619.88 1049.17,619.66 1050.47,619.99 1051.77,619.93 1053.08,619.98 1054.38,619.79 1055.68,619.88 1056.98,619.36 1058.28,619.85 1059.58,619.68 1060.89,619.41 1062.19,619.34 1063.49,619.52 1064.79,619.44 1066.09,619.92 1067.39,619.82 1068.70,619.97 1070.00,619.97" fill="none" stroke="black" stroke-width="1.5"/>
<text x="87" y="487" text-anchor="end" font-family="monospace" font-size="11">376</text>
<text x="87" y="620" text-anchor="end" font-family="monospace" font-size="11">0</text>
<text x="95" y="655" font-family="sans-serif" font-size="14">ADXL367 accel |a| (m/s²)</text>
<rect x="95" y="665" width="975" height="145" fill="none" stroke="black" stroke-width="1"/>
<polyline points="95.00,770.68 96.30,770.62 97.60,770.14 98.91,770.93 100.21,770.37 101.51,770.71 102.81,770.03 104.11,770.28 105.42,770.23 106.72,770.26 108.02,770.39 109.32,770.37 110.62,770.12 111.92,769.92 113.22,770.44 114.53,770.56 115.83,771.25 117.13,769.84 118.43,769.72 119.74,769.93 121.03,770.37 122.34,770.30 123.64,770.21 124.94,770.35 126.24,770.59 127.54,770.44 128.85,770.15 130.15,770.31 131.45,770.77 132.75,770.39 134.05,770.11 135.35,769.93 136.66,770.53 137.96,770.88 139.26,770.06 140.56,770.17 141.86,769.98 143.16,770.23 144.47,770.29 145.77,770.35 147.07,770.81 148.37,770.45 149.67,770.69 150.97,770.48 152.28,770.28 153.58,770.48 154.88,770.72 156.18,770.14 157.48,770.07 158.79,770.54 160.09,769.94 161.39,770.45 162.69,770.05 163.99,770.17 165.30,770.18 166.59,770.39 167.90,770.09 169.20,770.21 170.50,770.41 171.80,770.44 173.10,770.44 174.41,770.74 175.71,770.43 177.01,770.59 178.31,770.41 179.61,770.69 180.92,770.51 182.22,770.67 183.52,770.61 184.82,770.29 186.12,770.47 187.42,770.39 188.73,770.29 190.03,770.69 191.33,769.81 192.63,769.81 193.93,770.37 195.24,770.38 196.54,770.11 197.84,770.30 199.14,770.58 200.44,770.19 201.74,770.72 203.04,771.28 204.35,770.65 205.65,770.52 206.95,770.47 208.25,770.02 209.55,770.45 210.85,770.23 212.16,770.20 213.46,770.52 214.76,770.24 216.06,770.24 217.36,769.94 218.66,770.43 219.97,770.25 221.27,769.99 222.57,769.88 223.87,770.09 225.17,770.50 226.48,770.27 227.78,770.10 229.08,770.09 230.38,769.96 231.68,770.74 232.98,770.27 234.29,770.13 235.59,770.45 236.89,770.46 238.19,770.08 239.49,770.53 240.79,769.98 242.10,770.11 243.40,770.76 244.70,769.94 246.00,770.29 247.30,770.01 248.60,770.39 249.91,770.25 251.21,770.26 252.51,770.26 253.81,770.53 255.11,770.20 256.42,770.43 257.72,770.61 259.02,770.64 260.32,770.46 261.62,770.20 262.92,770.06 264.23,770.53 265.53,770.46 266.83,770.24 268.13,770.30 269.43,770.66 270.74,769.48 272.04,770.51 273.33,770.21 274.64,770.30 275.94,770.34 277.25,770.06 278.55,770.23 279.85,770.05 281.17,770.09 282.45,770.59 283.75,770.39 285.08,770.40 286.36,770.03 287.66,770.43 288.96,770.20 290.26,770.32 291.56,769.71 292.87,770.29 294.17,770.02 295.47,770.44 296.77,769.79 298.07,770.46 299.37,770.39 300.67,770.22 301.98,770.21 303.28,770.36 304.58,769.98 305.88,770.61 307.18,770.31 308.48,770.47 309.79,770.39 311.09,770.73 312.39,770.08 313.69,770.42 314.99,770.43 316.29,770.18 317.60,770.47 318.90,770.54 320.20,770.29 321.50,770.07 322.80,770.25 324.10,770.26 325.41,770.20 326.71,770.31 328.01,769.89 329.31,770.45 330.61,770.40 331.92,770.43 333.22,770.86 334.52,770.55 335.82,770.04 337.12,770.45 338.42,770.42 339.73,770.06 341.03,770.29 342.33,770.36 343.63,770.79 344.93,770.39 346.24,770.18 347.54,770.32 348.84,770.30 350.14,770.30 351.44,770.54 352.74,770.04 354.04,730.41 355.35,672.43 356.65,714.57 357.95,733.77 359.25,738.32 360.55,739.25 361.86,740.21 363.16,735.25 364.46,727.34 365.76,730.78 367.06,737.04 368.36,739.38 369.67,742.42 370.97,734.00 372.27,717.01 373.57,723.85 374.87,731.38 376.18,732.16 377.48,727.70 378.78,733.89 380.08,735.11 381.38,742.31 382.68,761.00 383.98,772.89 385.29,780.15 386.59,792.16 387.89,786.24 389.19,784.83 390.50,776.92 391.80,780.87 393.10,777.89 394.40,781.60 395.70,792.89 397.00,780.35 398.30,804.98 399.61,803.70 400.91,798.33 402.21,807.57 403.51,803.47 404.81,804.67 406.12,800.73 407.42,792.58 408.72,788.55 410.02,787.07 411.32,780.28 412.62,760.61 413.92,759.99 415.23,758.65 416.53,764.38 417.83,759.64 419.13,750.74 420.43,749.73 421.73,750.30 423.04,747.95 424.34,745.87 425.64,747.91 426.94,751.22 428.25,754.39 429.55,752.81 430.85,748.22 432.15,745.50 433.45,739.69 434.75,731.43 436.06,720.99 437.36,724.98 438.66,732.92 439.96,740.78 441.26,741.53 442.56,735.22 443.86,724.13 445.17,711.56 446.47,693.20 447.77,674.34 449.07,665.00 450.38,668.32 451.68,683.53 452.98,700.05 454.28,716.54 455.58,734.34 456.88,739.90 458.18,753.72 459.49,769.42 460.79,782.07 462.09,779.47 463.39,789.86 464.69,803.50 466.00,805.39 467.30,808.06 468.60,799.28 469.90,804.29 471.20,798.14 472.50,800.90 473.80,785.00 475.11,797.61 476.41,784.02 477.71,756.16 479.01,743.55 480.31,741.49 481.61,735.86 482.92,731.81 484.22,724.71 485.52,727.97 486.82,724.94 488.13,724.23 489.43,724.56 490.73,727.44 492.03,724.63 493.33,737.54 494.63,734.11 495.94,753.55 497.24,761.74 498.54,760.92 499.84,761.69 501.14,766.61 502.44,765.12 503.75,774.18 505.05,774.64 506.35,775.15 507.65,774.28 508.95,771.90 510.25,767.72 511.55,768.47 512.86,759.38 514.16,755.40 515.46,747.72 516.76,741.56 518.06,738.00 519.36,730.58 520.67,724.66 521.97,725.84 523.27,722.79 524.57,732.12 525.87,738.82 527.18,741.95 528.48,722.95 529.78,741.47 531.08,742.91 532.38,740.17 533.68,747.28 534.99,755.34 536.29,761.50 537.59,761.20 538.89,760.06 540.19,765.54 541.49,766.32 542.80,778.65 544.10,798.66 545.40,773.59 546.70,787.35 548.00,777.26 549.31,777.40 550.61,789.27 551.91,781.51 553.21,769.37 554.51,742.81 555.81,741.82 557.12,744.60 558.42,746.71 559.72,751.57 561.02,782.03 562.32,799.89 563.62,791.75 564.93,776.38 566.23,762.26 567.53,742.25 568.83,741.83 570.13,742.03 571.43,740.78 572.74,743.45 574.04,746.16 575.34,751.48 576.64,752.37 577.94,756.09 579.25,760.96 580.55,760.73 581.85,762.11 583.15,768.97 584.45,771.32 585.76,758.64 587.06,747.51 588.36,747.08 589.66,741.03 590.96,747.95 592.26,742.21 593.57,751.22 594.87,749.27 596.17,739.30 597.47,745.43 598.77,731.65 600.07,712.44 601.37,713.66 602.68,714.88 603.98,711.98 605.28,722.55 606.58,724.93 607.88,739.53 609.19,744.03 610.49,750.08 611.79,755.02 613.09,778.77 614.39,760.69 615.69,763.85 616.99,766.22 618.30,767.65 619.60,773.57 620.90,782.96 622.20,784.29 623.51,787.76 624.81,807.67 626.10,810.00 627.41,797.09 628.71,790.56 630.01,787.05 631.31,787.86 632.62,778.53 633.92,760.27 635.22,755.58 636.52,769.66 637.82,760.66 639.13,761.39 640.43,753.91 641.73,760.33 643.03,760.43 644.33,761.88 645.64,761.19 646.94,753.81 648.24,749.64 649.54,770.02 650.84,765.35 652.14,763.62 653.44,769.65 654.75,774.86 656.05,771.12 657.35,765.79 658.65,769.29 659.95,770.52 661.25,767.19 662.56,767.49 663.86,770.35 665.16,769.90 666.46,767.91 667.76,770.51 669.06,770.91 670.37,771.19 671.67,767.76 672.97,769.43 674.28,767.49 675.57,768.53 676.88,771.27 678.18,771.61 679.48,772.17 680.78,769.86 682.08,770.54 683.38,771.25 684.69,770.29 685.99,771.15 687.29,770.70 688.59,771.74 689.89,771.17 691.19,771.22 692.50,771.50 693.80,771.65 695.10,772.17 696.40,772.60 697.70,769.52 699.01,767.02 700.31,770.25 701.61,770.95 702.91,770.90 704.21,769.77 705.51,770.98 706.81,763.42 708.12,765.86 709.42,769.75 710.72,770.86 712.02,770.12 713.32,770.61 714.63,770.62 715.93,770.84 717.23,768.12 718.53,769.95 719.83,770.76 721.14,770.08 722.44,768.99 723.74,770.44 725.04,770.65 726.34,771.57 727.64,771.41 728.94,771.40 730.25,769.99 731.55,771.66 732.85,771.77 734.15,772.19 735.45,770.66 736.75,770.01 738.06,770.92 739.36,774.30 740.66,773.10 741.96,774.36 743.27,773.81 744.57,772.01 745.87,770.96 747.17,772.17 748.47,777.22 749.77,772.16 751.07,773.65 752.38,772.76 753.68,767.77 754.98,768.13 756.28,771.49 757.58,770.27 758.89,773.01 760.19,772.02 761.49,773.17 762.79,772.16 764.09,772.21 765.39,771.95 766.69,769.54 768.00,772.36 769.30,772.33 770.60,771.95 771.90,772.27 773.20,760.47 774.50,792.48 775.81,739.80 777.11,788.21 778.41,767.81 779.71,779.52 781.02,770.51 782.31,779.15 783.62,766.68 784.92,769.11 786.22,772.37 787.52,773.07 788.82,772.22 790.13,772.05 791.43,772.22 792.73,771.31 794.03,770.32 795.33,769.29 796.63,775.01 797.94,772.35 799.24,772.02 800.54,772.58 801.84,774.25 803.14,770.65 804.45,771.00 805.75,770.77 807.05,770.77 808.35,770.89 809.65,770.38 810.96,776.32 812.25,776.67 813.56,770.92 814.86,770.75 816.16,770.21 817.46,770.78 818.76,771.06 820.07,770.87 821.37,770.25 822.67,774.98 823.97,775.54 825.27,769.99 826.57,772.23 827.88,771.72 829.18,771.80 830.48,769.74 831.78,775.38 833.08,769.21 834.38,770.77 835.69,770.91 836.99,771.20 838.29,770.50 839.59,770.88 840.89,776.46 842.19,770.57 843.50,771.25 844.80,771.31 846.10,775.29 847.40,770.09 848.70,770.14 850.01,769.27 851.31,775.26 852.61,769.71 853.91,771.05 855.21,774.21 856.52,769.20 857.82,770.00 859.12,773.09 860.42,770.34 861.72,773.49 863.02,772.87 864.33,770.28 865.63,770.98 866.93,770.88 868.23,771.25 869.53,772.88 870.83,772.43 872.13,771.72 873.44,771.42 874.74,771.58 876.04,771.97 877.34,771.86 878.65,771.83 879.95,771.30 881.25,771.99 882.55,772.20 883.85,772.05 885.15,771.96 886.46,772.03 887.76,771.57 889.06,771.72 890.36,771.93 891.66,772.62 892.96,772.02 894.26,772.23 895.57,771.96 896.87,771.97 898.17,771.80 899.47,772.02 900.77,772.27 902.07,772.24 903.38,772.02 904.68,771.80 905.98,771.76 907.28,772.46 908.58,771.82 909.88,772.43 911.19,772.40 912.49,771.56 913.79,772.41 915.09,771.52 916.39,772.16 917.70,772.38 919.00,771.48 920.30,771.73 921.60,772.19 922.90,771.75 924.20,772.03 925.51,771.86 926.81,771.45 928.11,772.32 929.41,772.06 930.71,771.40 932.01,771.84 933.32,772.08 934.62,772.31 935.92,772.39 937.22,771.98 938.52,771.79 939.83,772.28 941.13,771.97 942.43,772.14 943.73,772.07 945.03,772.16 946.33,772.05 947.63,771.12 948.94,772.03 950.24,772.20 951.54,771.30 952.84,771.69 954.15,772.25 955.45,772.45 956.75,771.62 958.05,772.01 959.35,771.99 960.65,772.08 961.95,771.96 963.26,772.21 964.56,771.64 965.86,772.22 967.16,772.27 968.47,772.21 969.77,772.09 971.07,771.85 972.37,771.61 973.67,771.99 974.98,772.04 976.27,771.82 977.57,771.90 978.88,771.94 980.18,771.87 981.48,771.69 982.78,772.27 984.08,772.14 985.39,771.78 986.69,772.01 987.99,771.98 989.29,771.97 990.59,771.73 991.90,772.15 993.20,771.93 994.50,771.58 995.80,771.82 997.10,771.79 998.40,771.86 999.70,771.84 1001.01,772.19 1002.31,771.40 1003.61,771.94 1004.91,772.67 1006.21,772.07 1007.51,771.79 1008.82,771.72 1010.12,772.38 1011.42,772.30 1012.72,771.93 1014.02,771.64 1015.33,771.73 1016.63,771.69 1017.93,771.78 1019.23,771.91 1020.53,772.03 1021.83,771.78 1023.14,772.16 1024.44,771.88 1025.74,772.44 1027.04,771.92 1028.34,772.02 1029.64,772.72 1030.95,772.13 1032.25,772.18 1033.55,772.29 1034.85,772.05 1036.15,771.76 1037.46,772.31 1038.76,772.13 1040.06,771.65 1041.36,771.79 1042.66,771.63 1043.97,771.73 1045.26,771.67 1046.57,771.46 1047.87,771.67 1049.17,771.93 1050.47,771.71 1051.77,772.57 1053.08,772.22 1054.38,771.87 1055.68,771.64 1056.98,772.08 1058.28,771.93 1059.58,772.28 1060.89,772.13 1062.19,772.35 1063.49,772.01 1064.79,772.56 1066.09,771.62 1067.39,771.86 1068.70,772.00 1070.00,771.87" fill="none" stroke="black" stroke-width="1.5"/>
<text x="87" y="677" text-anchor="end" font-family="monospace" font-size="11">21.2</text>
<text x="87" y="810" text-anchor="end" font-family="monospace" font-size="11">5.59</text>
<text x="95" y="830" font-family="monospace" font-size="11">0 s</text>
<text x="1070" y="830" text-anchor="end" font-family="monospace" font-size="11">14.98 s</text>
</svg>
