<svg xmlns="http://www.w3.org/2000/svg" width="1100" height="910" viewBox="0 0 1100 910">
<rect width="100%" height="100%" fill="white"/>
<text x="95" y="35" font-family="sans-serif" font-size="22" font-weight="bold">pickup-drop-r06</text>
<text x="95" y="62" font-family="sans-serif" font-size="13">pickup_drop | WARN | core=PCA20072-carrier-R0 | surface=unspecified-safe</text>
<text x="95" y="85" font-family="sans-serif" font-size="14">BMI270 accel |a| (m/s²)</text>
<rect x="95" y="95" width="975" height="145" fill="none" stroke="black" stroke-width="1"/>
<polyline points="95.00,210.71 96.30,210.70 97.60,210.70 98.90,210.72 100.20,210.72 101.50,210.73 102.80,210.73 104.10,210.74 105.40,210.72 106.70,210.70 108.00,210.72 109.30,210.73 110.60,210.72 111.90,210.69 113.20,210.68 114.50,210.70 115.80,210.71 117.10,210.70 118.40,210.74 119.70,210.72 121.00,210.68 122.30,210.74 123.60,210.69 124.90,210.75 126.20,210.72 127.49,210.70 128.80,210.72 130.10,210.65 131.40,210.70 132.70,210.70 134.00,210.68 135.30,210.70 136.60,210.73 137.90,210.73 139.20,210.73 140.50,210.67 141.80,210.70 143.10,210.72 144.40,210.68 145.70,210.74 147.00,210.64 148.30,210.69 149.60,210.69 150.90,210.70 152.20,210.77 153.50,210.68 154.80,210.70 156.10,210.77 157.40,210.70 158.70,210.63 160.00,210.76 161.30,210.73 162.60,210.72 163.90,210.74 165.20,210.70 166.50,210.74 167.80,210.69 169.10,210.72 170.40,210.73 171.70,210.72 173.00,210.70 174.30,210.73 175.60,210.68 176.90,210.72 178.20,210.66 179.50,210.69 180.80,210.72 182.10,210.68 183.40,210.71 184.70,210.71 186.00,210.70 187.30,210.75 188.60,210.71 189.90,210.71 191.20,210.68 192.50,210.71 193.80,210.70 195.10,210.72 196.40,210.71 197.70,210.72 199.00,210.66 200.30,210.68 201.60,210.71 202.90,210.74 204.20,210.68 205.50,210.70 206.80,210.72 208.10,210.65 209.40,210.73 210.70,210.70 212.00,210.73 213.30,210.72 214.60,210.69 215.90,210.76 217.20,210.72 218.50,210.74 219.80,210.64 221.10,210.71 222.40,210.72 223.70,210.73 225.00,210.71 226.30,210.70 227.60,210.70 228.90,210.66 230.20,210.69 231.50,210.67 232.80,210.76 234.10,210.69 235.40,210.66 236.70,210.71 238.00,210.71 239.30,210.74 240.60,210.66 241.90,210.69 243.20,210.74 244.50,210.70 245.80,210.69 247.10,210.72 248.40,210.78 249.70,210.72 251.00,210.74 252.30,210.75 253.60,210.71 254.90,210.69 256.20,210.70 257.50,210.64 258.80,210.70 260.10,210.70 261.40,210.67 262.70,210.68 264.00,210.72 265.30,210.67 266.60,210.68 267.90,210.76 269.20,210.72 270.50,210.72 271.80,210.71 273.10,210.69 274.42,210.73 275.70,210.73 277.00,210.70 278.30,210.66 279.60,210.72 280.90,210.71 282.20,210.73 283.50,210.74 284.80,210.69 286.10,210.71 287.40,210.74 288.70,210.73 290.00,210.69 291.30,210.70 292.60,210.66 293.90,210.74 295.20,210.67 296.50,210.75 297.80,210.77 299.10,210.63 300.40,210.72 301.70,210.72 303.00,210.75 304.30,210.71 305.60,210.70 306.90,210.72 308.20,210.66 309.50,210.66 310.80,210.75 312.10,210.72 313.40,210.67 314.70,210.75 316.00,210.73 317.30,210.70 318.60,210.71 319.90,210.67 321.20,210.66 322.50,210.68 323.80,210.73 325.10,210.72 326.40,210.73 327.70,210.75 329.00,210.65 330.30,210.76 331.60,210.71 332.90,210.59 334.20,210.70 335.50,210.72 336.80,210.73 338.10,210.71 339.40,210.74 340.70,210.65 342.00,210.74 343.30,210.70 344.60,210.69 345.90,210.76 347.20,210.70 348.50,210.70 349.80,210.74 351.10,210.72 352.40,210.73 353.70,210.69 355.00,210.67 356.30,210.65 357.60,210.69 358.90,210.76 360.20,210.72 361.50,210.69 362.80,210.75 364.10,210.72 365.40,210.76 366.70,210.65 368.00,210.71 369.30,210.68 370.60,210.69 371.90,210.73 373.20,210.72 374.50,210.67 375.80,210.70 377.10,210.64 378.40,210.71 379.70,210.70 381.00,210.68 382.30,210.71 383.60,210.67 384.90,210.71 386.20,210.66 387.50,210.67 388.80,210.73 390.10,210.64 391.40,210.69 392.70,210.66 394.00,210.71 395.30,210.72 396.60,210.71 397.90,210.74 399.20,210.72 400.50,210.74 401.80,210.69 403.10,210.68 404.40,210.77 405.70,210.76 407.00,210.69 408.30,210.72 409.60,210.74 410.90,210.74 412.20,210.70 413.50,210.76 414.80,210.66 416.10,210.76 417.40,210.73 418.70,210.67 420.00,210.72 421.30,210.76 422.60,210.71 423.90,210.71 425.20,210.71 426.50,210.66 427.80,210.75 429.10,210.71 430.40,210.68 431.70,210.73 433.00,210.70 434.30,210.72 435.60,210.71 436.90,210.67 438.20,210.76 439.50,210.70 440.80,210.74 442.10,210.69 443.40,210.71 444.70,210.70 446.00,210.52 447.30,164.16 448.60,188.85 449.90,166.91 451.20,193.80 452.50,194.36 453.80,197.01 455.10,200.25 456.40,201.98 457.70,206.82 459.00,204.89 460.30,201.65 461.60,201.39 462.90,211.36 464.20,204.93 465.50,213.37 466.80,213.41 468.10,211.75 469.40,213.45 470.70,213.09 472.00,215.32 473.30,225.48 474.60,218.71 475.90,215.39 477.20,214.29 478.50,220.68 479.80,211.57 481.10,206.87 482.40,215.30 483.70,209.90 485.00,205.91 486.30,214.66 487.60,214.05 488.90,213.45 490.20,211.77 491.50,211.55 492.80,211.75 494.10,195.19 495.40,220.87 496.70,217.95 498.00,218.67 499.30,215.50 500.60,215.94 501.90,213.98 503.20,208.80 504.50,203.10 505.80,199.04 507.10,200.86 508.40,192.58 509.70,190.33 511.00,187.92 512.30,189.86 513.60,187.52 514.90,187.91 516.20,186.08 517.50,188.86 518.80,191.78 520.10,192.26 521.40,190.86 522.70,187.23 524.00,181.22 525.30,183.37 526.60,189.01 527.90,192.48 529.20,193.25 530.50,196.50 531.80,196.94 533.10,203.20 534.40,206.11 535.70,213.08 537.00,215.93 538.30,217.84 539.60,221.12 540.90,221.20 542.20,220.07 543.50,222.07 544.80,222.64 546.10,226.06 547.40,228.18 548.70,229.65 550.00,229.99 551.30,222.88 552.60,225.95 553.90,223.52 555.20,221.66 556.50,221.30 557.80,219.17 559.10,217.33 560.40,212.31 561.70,210.97 563.00,206.42 564.30,194.98 565.60,190.62 566.90,188.31 568.20,187.03 569.50,186.77 570.80,188.17 572.10,190.00 573.40,191.07 574.70,192.28 576.00,193.32 577.30,195.98 578.60,199.01 579.90,200.48 581.20,200.16 582.50,200.27 583.80,199.65 585.10,202.60 586.40,202.77 587.70,202.40 589.00,201.24 590.30,201.70 591.60,203.29 592.90,201.45 594.20,201.71 595.50,203.90 596.80,202.22 598.10,209.50 599.40,206.41 600.70,200.40 602.00,197.21 603.30,192.82 604.60,186.43 605.90,183.14 607.20,180.64 608.50,181.63 609.80,183.18 611.10,187.64 612.40,192.38 613.70,197.58 615.00,200.45 616.30,201.88 617.60,204.20 618.90,206.23 620.20,208.04 621.50,209.86 622.80,210.91 624.10,211.94 625.40,213.22 626.70,214.51 628.00,214.98 629.30,214.51 630.60,214.51 631.90,214.36 633.20,216.14 634.50,213.28 635.80,210.39 637.10,211.43 638.40,204.70 639.70,196.22 641.00,187.74 642.30,182.50 643.60,179.34 644.90,178.00 646.20,183.35 647.51,184.33 648.80,183.65 650.10,186.20 651.40,192.46 652.70,195.25 654.00,195.68 655.30,191.51 656.60,199.98 657.90,202.99 659.20,204.44 660.50,207.53 661.80,208.95 663.10,209.03 664.40,209.44 665.70,210.28 667.00,209.79 668.30,212.45 669.60,210.73 670.90,211.94 672.20,207.53 673.50,205.80 674.80,206.14 676.10,205.46 677.40,204.64 678.70,202.05 680.00,199.88 681.30,197.74 682.60,195.90 683.90,193.28 685.20,190.82 686.50,189.32 687.80,188.54 689.10,188.87 690.40,190.90 691.70,192.77 693.00,197.14 694.30,201.51 695.60,205.44 696.90,208.69 698.20,209.51 699.50,209.21 700.80,209.07 702.10,209.68 703.40,209.91 704.70,210.32 706.00,209.07 707.30,210.46 708.60,209.77 709.90,208.99 711.20,209.67 712.50,208.89 713.80,208.07 715.10,205.42 716.40,206.52 717.70,205.51 719.00,204.64 720.30,203.49 721.60,202.27 722.90,201.35 724.20,199.75 725.50,197.25 726.80,193.86 728.10,193.27 729.40,195.82 730.70,198.25 732.00,197.18 733.30,195.45 734.60,192.54 735.90,190.27 737.20,190.97 738.50,189.83 739.80,189.67 741.10,192.04 742.40,196.74 743.70,202.23 745.00,206.13 746.30,211.99 747.60,215.28 748.90,217.05 750.20,217.77 751.50,218.05 752.80,217.37 754.10,216.57 755.40,213.78 756.70,211.22 758.00,208.19 759.30,205.16 760.60,202.49 761.90,200.35 763.20,200.20 764.50,201.17 765.80,203.31 767.10,204.25 768.40,205.82 769.70,206.61 771.00,207.19 772.30,207.18 773.60,205.67 774.90,206.48 776.20,205.77 777.50,204.89 778.80,204.17 780.10,204.30 781.40,205.17 782.70,206.56 784.00,206.33 785.30,207.03 786.60,206.81 787.90,207.38 789.20,208.35 790.50,207.21 791.80,208.02 793.10,213.57 794.40,204.89 795.70,208.64 797.00,209.32 798.30,206.69 799.60,204.70 800.90,204.30 802.20,204.61 803.50,201.07 804.80,201.14 806.10,203.66 807.40,202.57 808.70,203.38 810.00,205.01 811.30,207.64 812.60,210.31 813.90,210.04 815.20,209.04 816.50,207.47 817.80,205.86 819.10,205.97 820.40,206.00 821.70,204.15 823.00,200.22 824.30,197.56 825.60,199.01 826.90,197.43 828.20,201.42 829.50,203.76 830.80,206.80 832.10,207.27 833.40,207.37 834.70,206.53 836.00,208.66 837.30,210.64 838.60,211.56 839.90,211.71 841.20,211.39 842.50,212.66 843.80,217.33 845.10,215.11 846.40,212.85 847.70,211.07 849.00,211.63 850.30,211.04 851.60,211.59 852.90,212.18 854.20,212.84 855.50,213.35 856.80,212.07 858.10,208.88 859.40,206.32 860.70,203.12 862.00,196.76 863.30,192.29 864.60,191.51 865.90,190.01 867.20,190.42 868.50,190.26 869.80,191.37 871.10,192.07 872.40,195.14 873.70,196.62 875.00,197.60 876.30,195.16 877.60,202.30 878.90,202.54 880.20,204.39 881.50,207.14 882.80,209.37 884.10,209.73 885.40,210.91 886.70,212.97 888.00,212.07 889.30,213.57 890.60,217.52 891.90,230.71 893.20,239.50 894.50,239.89 895.80,239.94 897.10,240.00 898.40,239.97 899.70,239.97 901.00,239.98 902.30,239.92 903.60,239.91 904.90,115.99 906.20,213.38 907.50,232.44 908.80,237.69 910.10,238.82 911.40,238.73 912.70,236.08 914.00,227.73 915.30,230.78 916.60,236.61 917.90,95.00 919.20,228.43 920.50,162.76 921.80,216.52 923.10,207.59 924.40,208.69 925.70,210.97 927.00,215.97 928.30,206.60 929.60,207.01 930.90,215.13 932.20,208.65 933.50,211.41 934.80,216.78 936.10,211.99 937.40,206.81 938.70,212.50 940.00,213.94 941.30,208.24 942.60,210.18 943.90,209.11 945.20,210.59 946.50,210.86 947.80,206.22 949.10,213.03 950.40,207.11 951.70,212.54 953.00,207.86 954.30,210.62 955.60,209.46 956.90,211.10 958.20,210.32 959.50,206.33 960.80,210.82 962.10,211.03 963.40,211.09 964.70,211.02 966.00,211.12 967.30,211.08 968.60,211.07 969.90,211.11 971.20,210.97 972.50,210.93 973.80,210.90 975.10,210.89 976.40,210.95 977.70,211.11 979.00,211.02 980.30,210.78 981.60,211.15 982.90,211.43 984.20,210.34 985.50,207.87 986.80,209.01 988.10,211.57 989.40,211.24 990.70,211.61 992.00,210.42 993.30,211.02 994.60,211.14 995.90,211.08 997.20,211.08 998.50,210.96 999.80,206.70 1001.10,214.49 1002.40,210.92 1003.70,212.00 1005.00,210.64 1006.30,212.34 1007.60,211.35 1008.90,210.75 1010.20,210.85 1011.50,210.24 1012.80,210.43 1014.10,212.82 1015.40,210.68 1016.70,211.34 1018.00,210.75 1019.30,210.37 1020.60,210.15 1021.90,211.26 1023.20,210.61 1024.50,210.57 1025.80,210.87 1027.10,211.23 1028.40,211.02 1029.70,210.85 1031.00,211.10 1032.30,211.13 1033.60,211.08 1034.90,210.89 1036.20,210.84 1037.50,210.97 1038.80,210.92 1040.10,210.98 1041.40,211.04 1042.70,210.97 1044.00,210.92 1045.30,210.98 1046.60,210.94 1047.90,210.96 1049.20,211.00 1050.50,210.93 1051.80,210.91 1053.10,210.97 1054.40,211.05 1055.70,211.05 1057.00,210.97 1058.30,210.98 1059.60,210.92 1060.90,210.98 1062.20,210.96 1063.50,211.01 1064.80,210.97 1066.10,210.94 1067.40,210.98 1068.70,210.92 1070.00,210.98" fill="none" stroke="black" stroke-width="1.5"/>
<text x="87" y="107" text-anchor="end" font-family="monospace" font-size="11">47.5</text>
<text x="87" y="240" text-anchor="end" font-family="monospace" font-size="11">0.182</text>
<text x="95" y="275" font-family="sans-serif" font-size="14">BMI270 gyro |ω| (rad/s)</text>
<rect x="95" y="285" width="975" height="145" fill="none" stroke="black" stroke-width="1"/>
<polyline points="95.00,429.98 96.30,429.98 97.60,429.96 98.90,429.96 100.20,429.96 101.50,429.97 102.80,430.00 104.10,429.98 105.40,429.94 106.70,429.96 108.00,429.98 109.30,429.97 110.60,429.97 111.90,429.99 113.20,429.98 114.50,429.97 115.80,429.95 117.10,429.96 118.40,429.99 119.70,430.00 121.00,429.97 122.30,429.96 123.60,429.97 124.90,429.97 126.20,429.99 127.49,429.98 128.80,429.98 130.10,429.96 131.40,429.97 132.70,429.97 134.00,429.98 135.30,429.97 136.60,429.97 137.90,429.97 139.20,429.97 140.50,429.98 141.80,429.98 143.10,429.96 144.40,429.98 145.70,429.96 147.00,429.95 148.30,429.97 149.60,429.97 150.90,429.98 152.20,429.98 153.50,429.97 154.80,429.94 156.10,429.98 157.40,429.99 158.70,429.97 160.00,429.95 161.30,429.97 162.60,429.97 163.90,429.98 165.20,429.96 166.50,429.96 167.80,429.97 169.10,429.97 170.40,429.96 171.70,429.96 173.00,429.96 174.30,429.97 175.60,429.98 176.90,429.97 178.20,429.97 179.50,429.98 180.80,429.96 182.10,429.96 183.40,429.96 184.70,429.98 186.00,429.98 187.30,429.99 188.60,429.97 189.90,429.96 191.20,429.97 192.50,429.96 193.80,429.96 195.10,429.98 196.40,429.99 197.70,429.96 199.00,429.97 200.30,429.98 201.60,429.95 202.90,429.97 204.20,429.96 205.50,429.95 206.80,429.97 208.10,429.99 209.40,429.97 210.70,429.98 212.00,429.94 213.30,429.96 214.60,429.98 215.90,429.99 217.20,429.97 218.50,429.98 219.80,429.97 221.10,429.98 222.40,429.96 223.70,429.96 225.00,429.98 226.30,429.96 227.60,429.98 228.90,429.96 230.20,429.97 231.50,429.97 232.80,429.96 234.10,429.98 235.40,429.95 236.70,429.98 238.00,430.00 239.30,429.97 240.60,429.96 241.90,429.97 243.20,429.96 244.50,429.98 245.80,429.96 247.10,429.98 248.40,429.97 249.70,429.97 251.00,429.97 252.30,429.97 253.60,429.98 254.90,429.97 256.20,429.97 257.50,429.97 258.80,429.97 260.10,429.98 261.40,429.98 262.70,429.97 264.00,429.96 265.30,429.96 266.60,429.99 267.90,429.98 269.20,429.96 270.50,429.96 271.80,429.96 273.10,429.98 274.42,429.96 275.70,429.97 277.00,429.97 278.30,429.98 279.60,429.97 280.90,429.96 282.20,429.95 283.50,429.97 284.80,429.99 286.10,429.97 287.40,429.94 288.70,429.97 290.00,429.98 291.30,429.98 292.60,429.96 293.90,429.95 295.20,429.96 296.50,429.97 297.80,429.97 299.10,429.95 300.40,429.96 301.70,429.97 303.00,429.98 304.30,429.96 305.60,429.95 306.90,429.97 308.20,429.98 309.50,429.97 310.80,429.97 312.10,429.97 313.40,429.97 314.70,429.97 316.00,429.97 317.30,429.97 318.60,429.97 319.90,429.98 321.20,429.96 322.50,429.96 323.80,429.98 325.10,429.96 326.40,429.95 327.70,429.97 329.00,429.97 330.30,429.95 331.60,429.98 332.90,429.97 334.20,429.97 335.50,429.98 336.80,429.95 338.10,429.97 339.40,429.97 340.70,430.00 342.00,429.97 343.30,429.97 344.60,429.97 345.90,429.96 347.20,429.97 348.50,429.99 349.80,429.96 351.10,429.96 352.40,429.98 353.70,429.98 355.00,429.97 356.30,429.96 357.60,429.97 358.90,429.97 360.20,429.95 361.50,429.97 362.80,429.98 364.10,429.97 365.40,429.96 366.70,429.97 368.00,429.97 369.30,429.96 370.60,429.95 371.90,429.97 373.20,429.97 374.50,429.96 375.80,429.97 377.10,429.97 378.40,429.97 379.70,429.97 381.00,429.98 382.30,429.96 383.60,429.96 384.90,429.97 386.20,429.98 387.50,429.97 388.80,429.97 390.10,429.97 391.40,429.96 392.70,429.98 394.00,429.98 395.30,429.97 396.60,429.98 397.90,429.96 399.20,429.98 400.50,429.97 401.80,429.98 403.10,429.97 404.40,429.98 405.70,429.96 407.00,429.96 408.30,429.97 409.60,429.96 410.90,429.98 412.20,429.97 413.50,429.96 414.80,429.96 416.10,429.97 417.40,429.97 418.70,429.98 420.00,429.95 421.30,429.98 422.60,429.98 423.90,429.97 425.20,429.97 426.50,429.97 427.80,429.97 429.10,429.97 430.40,429.98 431.70,429.95 433.00,429.96 434.30,429.97 435.60,429.99 436.90,429.97 438.20,429.98 439.50,429.96 440.80,429.98 442.10,429.96 443.40,429.96 444.70,429.97 446.00,429.98 447.30,356.16 448.60,365.60 449.90,415.55 451.20,408.32 452.50,422.32 453.80,407.80 455.10,411.46 456.40,411.86 457.70,410.43 459.00,413.27 460.30,415.08 461.60,419.61 462.90,421.70 464.20,406.63 465.50,411.54 466.80,399.90 468.10,403.56 469.40,385.12 470.70,388.38 472.00,396.39 473.30,402.25 474.60,398.26 475.90,398.85 477.20,393.19 478.50,399.42 479.80,407.46 481.10,411.97 482.40,411.97 483.70,419.78 485.00,413.83 486.30,415.09 487.60,417.59 488.90,416.68 490.20,416.60 491.50,411.32 492.80,405.76 494.10,400.79 495.40,377.00 496.70,395.97 498.00,405.52 499.30,415.40 500.60,419.02 501.90,415.71 503.20,413.70 504.50,413.28 505.80,414.68 507.10,418.61 508.40,417.99 509.70,424.34 511.00,401.38 512.30,381.59 513.60,370.71 514.90,370.19 516.20,375.29 517.50,376.27 518.80,382.01 520.10,390.67 521.40,396.46 522.70,397.28 524.00,395.13 525.30,394.56 526.60,388.72 527.90,387.62 529.20,389.30 530.50,392.60 531.80,398.92 533.10,408.94 534.40,414.46 535.70,413.66 537.00,405.25 538.30,399.58 539.60,393.49 540.90,386.96 542.20,386.26 543.50,388.83 544.80,395.52 546.10,401.23 547.40,401.74 548.70,399.17 550.00,406.01 551.30,410.81 552.60,407.24 553.90,400.57 555.20,402.04 556.50,405.37 557.80,409.00 559.10,409.78 560.40,400.43 561.70,385.50 563.00,382.98 564.30,384.89 565.60,379.22 566.90,375.56 568.20,373.21 569.50,371.15 570.80,373.92 572.10,378.58 573.40,380.54 574.70,378.73 576.00,377.04 577.30,379.48 578.60,386.62 579.90,399.34 581.20,411.12 582.50,414.32 583.80,411.21 585.10,409.07 586.40,408.29 587.70,409.75 589.00,408.49 590.30,407.31 591.60,404.42 592.90,402.90 594.20,401.31 595.50,394.92 596.80,386.34 598.10,375.67 599.40,393.80 600.70,394.91 602.00,391.26 603.30,387.39 604.60,382.94 605.90,381.07 607.20,381.21 608.50,384.10 609.80,388.52 611.10,393.80 612.40,396.58 613.70,396.31 615.00,394.50 616.30,393.08 617.60,390.15 618.90,388.43 620.20,389.41 621.50,396.82 622.80,403.27 624.10,408.13 625.40,410.96 626.70,410.47 628.00,409.68 629.30,410.95 630.60,413.20 631.90,414.61 633.20,414.76 634.50,410.73 635.80,403.11 637.10,398.78 638.40,393.74 639.70,383.84 641.00,368.74 642.30,350.24 643.60,344.39 644.90,356.37 646.20,383.48 647.51,375.13 648.80,338.26 650.10,331.39 651.40,337.77 652.70,369.20 654.00,399.14 655.30,398.14 656.60,404.59 657.90,422.55 659.20,411.11 660.50,401.10 661.80,394.13 663.10,397.37 664.40,402.99 665.70,407.04 667.00,411.86 668.30,402.07 669.60,392.59 670.90,385.36 672.20,378.58 673.50,378.59 674.80,383.35 676.10,387.64 677.40,388.24 678.70,386.25 680.00,388.01 681.30,389.87 682.60,390.98 683.90,390.24 685.20,389.76 686.50,385.62 687.80,382.87 689.10,384.74 690.40,387.03 691.70,385.85 693.00,396.83 694.30,396.65 695.60,393.93 696.90,394.17 698.20,394.24 699.50,394.12 700.80,396.82 702.10,402.01 703.40,412.02 704.70,416.79 706.00,419.43 707.30,419.02 708.60,415.56 709.90,408.91 711.20,402.01 712.50,397.77 713.80,398.25 715.10,401.73 716.40,408.13 717.70,413.34 719.00,413.69 720.30,410.96 721.60,406.19 722.90,400.78 724.20,395.47 725.50,391.66 726.80,387.40 728.10,379.77 729.40,366.78 730.70,352.52 732.00,344.14 733.30,335.44 734.60,327.90 735.90,324.12 737.20,327.74 738.50,336.72 739.80,349.82 741.10,366.67 742.40,381.82 743.70,395.11 745.00,406.06 746.30,417.42 747.60,420.66 748.90,413.15 750.20,406.47 751.50,400.15 752.80,396.63 754.10,396.64 755.40,397.77 756.70,401.90 758.00,404.83 759.30,406.11 760.60,405.06 761.90,402.94 763.20,401.52 764.50,401.74 765.80,404.15 767.10,408.36 768.40,408.84 769.70,405.31 771.00,401.70 772.30,400.65 773.60,399.71 774.90,393.17 776.20,386.88 777.50,381.72 778.80,380.04 780.10,384.95 781.40,389.19 782.70,394.00 784.00,400.40 785.30,404.75 786.60,408.65 787.90,408.46 789.20,405.63 790.50,409.42 791.80,405.53 793.10,405.41 794.40,394.37 795.70,394.04 797.00,401.72 798.30,405.71 799.60,409.05 800.90,410.49 802.20,411.21 803.50,409.34 804.80,411.25 806.10,405.93 807.40,406.10 808.70,406.43 810.00,404.44 811.30,400.65 812.60,393.35 813.90,383.67 815.20,382.39 816.50,383.16 817.80,384.51 819.10,385.71 820.40,387.63 821.70,391.23 823.00,396.23 824.30,393.04 825.60,383.83 826.90,387.61 828.20,393.54 829.50,395.00 830.80,397.55 832.10,400.05 833.40,399.08 834.70,397.34 836.00,400.00 837.30,399.74 838.60,399.51 839.90,396.28 841.20,401.42 842.50,409.38 843.80,412.76 845.10,419.13 846.40,420.71 847.70,416.31 849.00,415.65 850.30,420.16 851.60,418.30 852.90,415.10 854.20,414.17 855.50,410.67 856.80,407.77 858.10,401.01 859.40,392.19 860.70,380.61 862.00,380.13 863.30,391.15 864.60,401.05 865.90,409.71 867.20,408.32 868.50,399.92 869.80,389.64 871.10,393.30 872.40,396.68 873.70,400.06 875.00,405.01 876.30,415.17 877.60,413.40 878.90,412.71 880.20,419.03 881.50,423.18 882.80,423.49 884.10,424.22 885.40,422.95 886.70,421.59 888.00,423.21 889.30,423.74 890.60,417.52 891.90,373.95 893.20,357.71 894.50,358.58 895.80,358.52 897.10,358.51 898.40,358.50 899.70,358.50 901.00,358.47 902.30,358.45 903.60,358.43 904.90,354.67 906.20,285.00 907.50,343.82 908.80,334.72 910.10,333.49 911.40,332.61 912.70,332.95 914.00,302.39 915.30,293.22 916.60,298.35 917.90,309.66 919.20,310.34 920.50,316.78 921.80,321.31 923.10,324.14 924.40,326.11 925.70,325.23 927.00,327.41 928.30,328.69 929.60,331.15 930.90,337.56 932.20,338.41 933.50,337.00 934.80,340.15 936.10,341.45 937.40,343.32 938.70,343.46 940.00,343.65 941.30,339.55 942.60,342.64 943.90,344.70 945.20,347.63 946.50,351.00 947.80,363.08 949.10,354.14 950.40,358.86 951.70,364.61 953.00,365.05 954.30,368.23 955.60,369.22 956.90,370.85 958.20,374.83 959.50,380.05 960.80,385.25 962.10,392.40 963.40,397.27 964.70,404.08 966.00,412.56 967.30,418.36 968.60,422.13 969.90,423.05 971.20,421.11 972.50,418.63 973.80,416.64 975.10,415.00 976.40,413.53 977.70,411.87 979.00,409.35 980.30,405.42 981.60,400.03 982.90,393.29 984.20,384.86 985.50,384.14 986.80,382.45 988.10,388.60 989.40,392.22 990.70,395.37 992.00,399.38 993.30,401.64 994.60,403.80 995.90,403.80 997.20,400.80 998.50,394.58 999.80,391.39 1001.10,395.22 1002.40,402.28 1003.70,408.52 1005.00,410.94 1006.30,415.64 1007.60,416.27 1008.90,413.39 1010.20,409.30 1011.50,406.93 1012.80,407.54 1014.10,415.86 1015.40,416.52 1016.70,416.54 1018.00,415.67 1019.30,416.89 1020.60,421.55 1021.90,424.39 1023.20,422.06 1024.50,422.86 1025.80,422.77 1027.10,423.84 1028.40,425.39 1029.70,426.44 1031.00,427.57 1032.30,428.20 1033.60,427.97 1034.90,427.86 1036.20,428.64 1037.50,429.89 1038.80,429.47 1040.10,429.27 1041.40,429.48 1042.70,429.84 1044.00,429.69 1045.30,429.97 1046.60,429.78 1047.90,429.75 1049.20,429.97 1050.50,429.93 1051.80,429.96 1053.10,429.84 1054.40,429.91 1055.70,429.99 1057.00,429.98 1058.30,429.95 1059.60,429.93 1060.90,429.96 1062.20,429.98 1063.50,429.98 1064.80,429.96 1066.10,429.95 1067.40,429.97 1068.70,429.98 1070.00,429.95" fill="none" stroke="black" stroke-width="1.5"/>
<text x="87" y="297" text-anchor="end" font-family="monospace" font-size="11">15.9</text>
<text x="87" y="430" text-anchor="end" font-family="monospace" font-size="11">0.00353</text>
<text x="95" y="465" font-family="sans-serif" font-size="14">Jerk magnitude (m/s³)</text>
<rect x="95" y="475" width="975" height="145" fill="none" stroke="black" stroke-width="1"/>
<polyline points="95.00,620.00 96.30,619.99 97.60,620.00 98.90,619.98 100.20,620.00 101.50,619.99 102.80,620.00 104.10,619.99 105.40,619.98 106.70,619.98 108.00,619.98 109.30,619.99 110.60,619.99 111.90,619.97 113.20,619.99 114.50,619.98 115.80,619.99 117.10,619.99 118.40,619.96 119.70,619.98 121.00,619.96 122.30,619.94 123.60,619.95 124.90,619.94 126.20,619.97 127.49,619.98 128.80,619.98 130.10,619.93 131.40,619.95 132.70,620.00 134.00,619.98 135.30,619.98 136.60,619.96 137.90,620.00 139.20,619.99 140.50,619.94 141.80,619.97 143.10,619.98 144.40,619.96 145.70,619.94 147.00,619.90 148.30,619.95 149.60,620.00 150.90,619.99 152.20,619.94 153.50,619.91 154.80,619.98 156.10,619.93 157.40,619.93 158.70,619.93 160.00,619.86 161.30,619.96 162.60,619.99 163.90,619.98 165.20,619.95 166.50,619.95 167.80,619.95 169.10,619.97 170.40,619.99 171.70,619.99 173.00,619.98 174.30,619.96 175.60,619.94 176.90,619.96 178.20,619.94 179.50,619.97 180.80,619.97 182.10,619.96 183.40,619.97 184.70,620.00 186.00,619.99 187.30,619.95 188.60,619.96 189.90,620.00 191.20,619.97 192.50,619.97 193.80,619.99 195.10,619.98 196.40,619.99 197.70,619.99 199.00,619.94 200.30,619.98 201.60,619.97 202.90,619.97 204.20,619.94 205.50,619.99 206.80,619.98 208.10,619.93 209.40,619.92 210.70,619.97 212.00,619.98 213.30,619.99 214.60,619.96 215.90,619.92 217.20,619.96 218.50,619.98 219.80,619.90 221.10,619.92 222.40,620.00 223.70,619.99 225.00,619.99 226.30,619.99 227.60,620.00 228.90,619.95 230.20,619.97 231.50,619.98 232.80,619.91 234.10,619.93 235.40,619.97 236.70,619.95 238.00,620.00 239.30,619.97 240.60,619.92 241.90,619.97 243.20,619.95 244.50,619.96 245.80,619.99 247.10,619.97 248.40,619.94 249.70,619.94 251.00,619.98 252.30,619.99 253.60,619.96 254.90,619.99 256.20,619.99 257.50,619.94 258.80,619.94 260.10,620.00 261.40,619.97 262.70,619.98 264.00,619.96 265.30,619.95 266.60,619.99 267.90,619.92 269.20,619.96 270.50,619.99 271.80,619.99 273.10,619.97 274.42,619.96 275.70,620.00 277.00,619.97 278.30,619.96 279.60,619.94 280.90,619.99 282.20,619.98 283.50,619.99 284.80,619.95 286.10,619.98 287.40,619.96 288.70,619.99 290.00,619.96 291.30,619.99 292.60,619.96 293.90,619.92 295.20,619.93 296.50,619.92 297.80,619.97 299.10,619.85 300.40,619.91 301.70,620.00 303.00,619.97 304.30,619.97 305.60,619.99 306.90,619.98 308.20,619.93 309.50,619.99 310.80,619.92 312.10,619.97 313.40,619.95 314.70,619.92 316.00,619.98 317.30,619.98 318.60,619.99 319.90,619.96 321.20,619.99 322.50,619.98 323.80,619.95 325.10,619.99 326.40,619.99 327.70,619.98 329.00,619.89 330.30,619.88 331.60,619.94 332.90,619.88 334.20,619.89 335.50,619.98 336.80,619.99 338.10,619.98 339.40,619.96 340.70,619.91 342.00,619.91 343.30,619.96 344.60,619.99 345.90,619.93 347.20,619.94 348.50,620.00 349.80,619.96 351.10,619.98 352.40,619.99 353.70,619.96 355.00,619.98 356.30,619.97 357.60,619.95 358.90,619.93 360.20,619.96 361.50,619.97 362.80,619.94 364.10,619.97 365.40,619.96 366.70,619.89 368.00,619.94 369.30,619.96 370.60,619.99 371.90,619.96 373.20,619.99 374.50,619.94 375.80,619.97 377.10,619.94 378.40,619.93 379.70,619.99 381.00,619.97 382.30,619.96 383.60,619.95 384.90,619.96 386.20,619.96 387.50,619.99 388.80,619.94 390.10,619.91 391.40,619.96 392.70,619.97 394.00,619.95 395.30,619.99 396.60,620.00 397.90,619.98 399.20,619.98 400.50,619.98 401.80,619.95 403.10,619.99 404.40,619.91 405.70,619.99 407.00,619.93 408.30,619.96 409.60,619.98 410.90,620.00 412.20,619.96 413.50,619.94 414.80,619.90 416.10,619.89 417.40,619.96 418.70,619.94 420.00,619.95 421.30,619.96 422.60,619.94 423.90,620.00 425.20,620.00 426.50,619.94 427.80,619.91 429.10,619.96 430.40,619.97 431.70,619.95 433.00,619.97 434.30,619.99 435.60,619.99 436.90,619.97 438.20,619.92 439.50,619.94 440.80,619.95 442.10,619.95 443.40,619.98 444.70,619.98 446.00,619.81 447.30,572.54 448.60,594.72 449.90,597.58 451.20,592.42 452.50,619.43 453.80,617.29 455.10,616.69 456.40,618.23 457.70,615.04 459.00,618.03 460.30,616.68 461.60,619.74 462.90,609.77 464.20,613.43 465.50,611.36 466.80,619.96 468.10,618.31 469.40,618.27 470.70,619.64 472.00,617.72 473.30,609.61 474.60,613.06 475.90,616.61 477.20,618.87 478.50,613.48 479.80,610.68 481.10,615.18 482.40,611.37 483.70,614.48 485.00,615.91 486.30,611.02 487.60,619.37 488.90,619.39 490.20,618.29 491.50,619.77 492.80,619.79 494.10,603.04 495.40,593.66 496.70,617.01 498.00,619.26 499.30,616.76 500.60,619.55 501.90,618.00 503.20,614.69 504.50,614.16 505.80,615.85 507.10,618.14 508.40,611.52 509.70,617.69 511.00,617.53 512.30,618.02 513.60,617.61 514.90,619.60 516.20,618.12 517.50,617.15 518.80,617.01 520.10,619.51 521.40,618.57 522.70,616.29 524.00,613.84 525.30,617.80 526.60,614.22 527.90,616.45 529.20,619.21 530.50,616.68 531.80,619.54 533.10,613.58 534.40,617.03 535.70,612.86 537.00,617.08 538.30,618.04 539.60,616.65 540.90,619.92 542.20,618.85 543.50,617.95 544.80,619.42 546.10,616.50 547.40,617.82 548.70,618.50 550.00,619.65 551.30,612.72 552.60,616.85 553.90,617.51 555.20,618.09 556.50,619.63 557.80,617.82 559.10,618.12 560.40,614.88 561.70,618.62 563.00,615.34 564.30,608.29 565.60,615.54 566.90,617.64 568.20,618.69 569.50,619.73 570.80,618.57 572.10,618.12 573.40,618.90 574.70,618.76 576.00,618.94 577.30,617.28 578.60,616.89 579.90,618.50 581.20,619.67 582.50,619.88 583.80,619.36 585.10,616.99 586.40,619.82 587.70,619.62 589.00,618.82 590.30,619.53 591.60,618.37 592.90,618.11 594.20,619.73 595.50,617.76 596.80,618.28 598.10,612.54 599.40,616.84 600.70,613.85 602.00,616.73 603.30,615.52 604.60,613.44 605.90,616.63 607.20,617.44 608.50,618.99 609.80,618.42 611.10,615.43 612.40,615.15 613.70,614.69 615.00,617.06 616.30,618.53 617.60,617.63 618.90,617.92 620.20,618.15 621.50,618.13 622.80,618.93 624.10,618.95 625.40,618.69 626.70,618.68 628.00,619.52 629.30,619.52 630.60,620.00 631.90,619.85 633.20,618.18 634.50,617.08 635.80,617.04 637.10,618.93 638.40,613.11 639.70,611.31 641.00,611.33 642.30,614.63 643.60,616.76 644.90,618.63 646.20,614.53 647.51,619.01 648.80,619.31 650.10,617.39 651.40,613.59 652.70,617.14 654.00,619.55 655.30,615.74 656.60,611.31 657.90,616.93 659.20,618.51 660.50,616.84 661.80,618.55 663.10,619.93 664.40,619.57 665.70,619.15 667.00,619.50 668.30,617.28 669.60,618.25 670.90,618.77 672.20,615.48 673.50,618.23 674.80,619.65 676.10,619.29 677.40,619.17 678.70,617.35 680.00,617.78 681.30,617.80 682.60,618.12 683.90,617.31 685.20,617.48 686.50,618.46 687.80,619.20 689.10,619.66 690.40,617.92 691.70,618.08 693.00,615.53 694.30,615.53 695.60,615.96 696.90,616.68 698.20,619.16 699.50,619.69 700.80,619.86 702.10,619.38 703.40,619.77 704.70,619.58 706.00,618.72 707.30,618.57 708.60,619.29 709.90,619.20 711.20,619.30 712.50,619.20 713.80,619.17 715.10,617.28 716.40,618.88 717.70,618.97 719.00,619.10 720.30,618.83 721.60,618.75 722.90,619.05 724.20,618.36 725.50,617.44 726.80,616.53 728.10,619.39 729.40,617.39 730.70,617.52 732.00,618.90 733.30,618.22 734.60,617.02 735.90,617.67 737.20,619.28 738.50,618.83 739.80,619.84 741.10,617.57 742.40,615.19 743.70,614.38 745.00,616.01 746.30,614.00 747.60,616.63 748.90,618.18 750.20,619.26 751.50,619.72 752.80,619.31 754.10,619.17 755.40,617.15 756.70,617.38 758.00,616.89 759.30,616.90 760.60,617.26 761.90,617.81 763.20,619.85 764.50,619.01 765.80,617.80 767.10,619.04 768.40,618.40 769.70,619.18 771.00,619.41 772.30,619.99 773.60,618.45 774.90,619.17 776.20,619.27 777.50,619.10 778.80,619.26 780.10,619.86 781.40,619.12 782.70,618.57 784.00,619.77 785.30,619.28 786.60,619.77 787.90,619.41 789.20,619.01 790.50,618.83 791.80,619.18 793.10,614.31 794.40,611.09 795.70,616.15 797.00,619.31 798.30,617.30 799.60,617.96 800.90,619.59 802.20,619.69 803.50,616.38 804.80,619.93 806.10,617.42 807.40,618.88 808.70,619.17 810.00,618.33 811.30,617.31 812.60,617.27 813.90,619.73 815.20,618.97 816.50,618.39 817.80,618.35 819.10,619.89 820.40,619.97 821.70,618.11 823.00,615.97 824.30,617.27 825.60,618.52 826.90,618.39 828.20,615.91 829.50,617.60 830.80,616.89 832.10,619.52 833.40,619.90 834.70,619.14 836.00,617.83 837.30,617.97 838.60,619.06 839.90,619.84 841.20,619.67 842.50,618.70 843.80,615.22 845.10,617.73 846.40,617.69 847.70,618.17 849.00,619.43 850.30,619.39 851.60,619.43 852.90,619.39 854.20,619.33 855.50,619.48 856.80,618.70 858.10,616.73 859.40,617.38 860.70,616.72 862.00,613.48 863.30,615.43 864.60,619.20 865.90,618.47 867.20,619.59 868.50,619.84 869.80,618.87 871.10,619.28 872.40,616.86 873.70,618.48 875.00,619.00 876.30,617.50 877.60,612.68 878.90,619.76 880.20,618.11 881.50,617.19 882.80,617.71 884.10,619.63 885.40,618.80 886.70,617.89 888.00,619.08 889.30,618.46 890.60,615.96 891.90,606.51 893.20,611.00 894.50,619.60 895.80,619.95 897.10,619.94 898.40,619.97 899.70,619.99 901.00,620.00 902.30,619.95 903.60,619.98 904.90,493.12 906.20,520.28 907.50,600.51 908.80,614.62 910.10,618.85 911.40,619.91 912.70,617.29 914.00,611.44 915.30,616.88 916.60,614.02 917.90,475.00 919.20,483.38 920.50,552.87 921.80,564.87 923.10,610.86 924.40,618.88 925.70,617.66 927.00,614.88 928.30,610.40 929.60,619.57 930.90,611.70 932.20,613.35 933.50,617.17 934.80,614.50 936.10,615.11 937.40,614.68 938.70,614.16 940.00,618.53 941.30,614.17 942.60,618.02 943.90,618.90 945.20,618.48 946.50,619.73 947.80,615.25 949.10,613.02 950.40,613.93 951.70,614.44 953.00,615.21 954.30,617.16 955.60,618.81 956.90,618.33 958.20,619.21 959.50,615.91 960.80,615.41 962.10,619.79 963.40,619.94 964.70,619.93 966.00,619.90 967.30,619.96 968.60,620.00 969.90,619.97 971.20,619.86 972.50,619.96 973.80,619.97 975.10,619.99 976.40,619.94 977.70,619.83 979.00,619.91 980.30,619.75 981.60,619.62 982.90,619.71 984.20,618.88 985.50,617.48 986.80,618.84 988.10,617.37 989.40,619.66 990.70,619.62 992.00,618.78 993.30,619.38 994.60,619.88 995.90,619.95 997.20,619.99 998.50,619.88 999.80,615.65 1001.10,612.01 1002.40,616.35 1003.70,618.90 1005.00,618.62 1006.30,618.27 1007.60,618.99 1008.90,619.39 1010.20,619.89 1011.50,619.38 1012.80,619.81 1014.10,617.56 1015.40,617.81 1016.70,619.32 1018.00,619.40 1019.30,619.61 1020.60,619.77 1021.90,618.86 1023.20,619.33 1024.50,619.96 1025.80,619.69 1027.10,619.62 1028.40,619.78 1029.70,619.82 1031.00,619.74 1032.30,619.97 1033.60,619.95 1034.90,619.81 1036.20,619.95 1037.50,619.87 1038.80,619.95 1040.10,619.94 1041.40,619.94 1042.70,619.93 1044.00,619.94 1045.30,619.93 1046.60,619.96 1047.90,619.98 1049.20,619.96 1050.50,619.92 1051.80,619.98 1053.10,619.93 1054.40,619.93 1055.70,620.00 1057.00,619.92 1058.30,619.98 1059.60,619.94 1060.90,619.94 1062.20,619.98 1063.50,619.95 1064.80,619.96 1066.10,619.98 1067.40,619.96 1068.70,619.93 1070.00,619.93" fill="none" stroke="black" stroke-width="1.5"/>
<text x="87" y="487" text-anchor="end" font-family="monospace" font-size="11">2.31e+03</text>
<text x="87" y="620" text-anchor="end" font-family="monospace" font-size="11">0</text>
<text x="95" y="655" font-family="sans-serif" font-size="14">ADXL367 accel |a| (m/s²)</text>
<rect x="95" y="665" width="975" height="145" fill="none" stroke="black" stroke-width="1"/>
<polyline points="95.00,752.95 96.30,753.57 97.60,753.46 98.90,753.46 100.20,753.65 101.50,753.34 102.80,753.34 104.10,753.38 105.40,753.66 106.70,753.62 108.00,753.34 109.30,753.61 110.60,753.52 111.90,753.50 113.20,753.53 114.50,753.70 115.80,753.41 117.10,753.51 118.40,753.58 119.70,753.54 121.00,753.41 122.30,753.54 123.60,753.52 124.90,753.48 126.20,753.47 127.49,753.50 128.80,753.24 130.10,753.65 131.40,753.59 132.70,753.30 134.00,753.73 135.30,753.39 136.60,753.40 137.90,753.56 139.20,753.53 140.50,753.66 141.80,753.48 143.10,753.30 144.40,753.45 145.70,753.48 147.00,753.62 148.30,753.53 149.60,753.48 150.90,753.15 152.20,753.39 153.50,753.57 154.80,753.71 156.10,753.77 157.40,753.62 158.70,753.61 160.00,753.23 161.30,753.56 162.60,753.33 163.90,753.63 165.20,753.35 166.50,753.50 167.80,753.38 169.10,753.49 170.40,753.16 171.70,753.68 173.00,753.81 174.30,753.55 175.60,753.37 176.90,753.71 178.20,753.40 179.50,753.37 180.80,753.59 182.10,753.59 183.40,753.45 184.70,753.65 186.00,753.58 187.30,753.59 188.60,753.58 189.90,753.24 191.20,753.75 192.50,753.24 193.80,753.52 195.10,753.59 196.40,753.57 197.70,753.26 199.00,753.53 200.30,753.40 201.60,753.49 202.90,753.61 204.20,753.53 205.50,753.52 206.80,753.52 208.10,753.53 209.40,753.18 210.70,753.53 212.00,753.60 213.30,753.57 214.60,753.49 215.90,753.81 217.20,753.49 218.50,753.30 219.80,753.70 221.10,753.53 222.40,753.39 223.70,753.56 225.00,753.45 226.30,753.35 227.60,753.54 228.90,753.50 230.20,753.38 231.50,753.12 232.80,753.61 234.10,753.53 235.40,753.42 236.70,753.44 238.00,753.44 239.30,753.22 240.60,753.16 241.90,753.54 243.20,753.36 244.50,753.64 245.80,753.65 247.10,753.56 248.40,753.70 249.70,753.66 251.00,753.58 252.30,753.34 253.60,753.30 254.90,753.54 256.20,753.30 257.50,753.22 258.80,753.65 260.10,753.43 261.40,753.56 262.70,753.64 264.00,753.53 265.30,753.48 266.60,753.71 267.90,753.51 269.20,753.69 270.50,753.44 271.80,753.21 273.10,753.44 274.42,753.59 275.70,753.64 277.00,753.41 278.30,753.19 279.60,753.65 280.90,753.73 282.20,753.37 283.50,753.33 284.80,753.39 286.10,753.53 287.40,753.45 288.70,753.44 290.00,753.42 291.30,753.52 292.60,753.41 293.90,753.59 295.20,753.44 296.50,753.44 297.80,753.66 299.10,753.52 300.40,753.44 301.70,753.25 303.00,753.53 304.30,753.22 305.60,753.70 306.90,753.59 308.20,753.63 309.50,753.50 310.80,753.73 312.10,753.54 313.40,753.25 314.70,753.37 316.00,753.24 317.30,753.24 318.60,753.45 319.90,753.33 321.20,753.44 322.50,753.14 323.80,753.37 325.10,753.54 326.40,753.47 327.70,753.39 329.00,753.39 330.30,753.45 331.60,753.74 332.90,753.36 334.20,753.43 335.50,753.37 336.80,753.91 338.10,753.42 339.40,753.27 340.70,753.47 342.00,753.47 343.30,753.62 344.60,753.44 345.90,753.21 347.20,753.61 348.50,753.23 349.80,753.65 351.10,753.30 352.40,753.06 353.70,753.56 355.00,753.70 356.30,753.37 357.60,753.59 358.90,753.19 360.20,753.70 361.50,753.66 362.80,753.39 364.10,753.54 365.40,753.41 366.70,753.42 368.00,753.58 369.30,753.33 370.60,753.55 371.90,753.75 373.20,753.63 374.50,753.50 375.80,753.56 377.10,753.65 378.40,753.43 379.70,753.57 381.00,753.52 382.30,753.67 383.60,753.57 384.90,753.28 386.20,753.28 387.50,753.47 388.80,753.57 390.10,753.63 391.40,753.61 392.70,753.38 394.00,753.35 395.30,753.46 396.60,753.46 397.90,753.71 399.20,753.30 400.50,753.65 401.80,753.33 403.10,753.50 404.40,753.49 405.70,753.32 407.00,753.93 408.30,753.30 409.60,753.85 410.90,753.18 412.20,753.46 413.50,753.55 414.80,753.25 416.10,753.56 417.40,753.29 418.70,753.30 420.00,753.51 421.30,753.66 422.60,753.43 423.90,753.60 425.20,753.44 426.50,753.25 427.80,753.33 429.10,753.54 430.40,753.66 431.70,753.69 433.00,753.36 434.30,753.66 435.60,753.14 436.90,753.66 438.20,753.02 439.50,753.51 440.80,753.48 442.10,753.49 443.40,753.54 444.70,753.47 446.00,753.24 447.30,665.00 448.60,692.06 449.90,719.95 451.20,719.75 452.50,714.30 453.80,731.58 455.10,734.51 456.40,738.88 457.70,744.60 459.00,736.63 460.30,737.66 461.60,741.76 462.90,754.20 464.20,737.27 465.50,744.89 466.80,759.13 468.10,757.98 469.40,762.98 470.70,762.88 472.00,764.91 473.30,778.63 474.60,771.78 475.90,761.25 477.20,765.33 478.50,764.57 479.80,751.81 481.10,742.40 482.40,757.42 483.70,749.61 485.00,748.57 486.30,753.01 487.60,758.66 488.90,758.78 490.20,758.01 491.50,757.30 492.80,756.24 494.10,722.40 495.40,765.46 496.70,768.78 498.00,770.68 499.30,762.75 500.60,764.51 501.90,757.99 503.20,748.94 504.50,738.45 505.80,734.39 507.10,731.76 508.40,716.04 509.70,727.58 511.00,714.09 512.30,712.78 513.60,706.93 514.90,705.19 516.20,708.24 517.50,709.90 518.80,715.07 520.10,716.95 521.40,713.50 522.70,707.64 524.00,696.01 525.30,699.85 526.60,707.11 527.90,715.75 529.20,717.69 530.50,723.19 531.80,727.40 533.10,736.77 534.40,745.21 535.70,757.51 537.00,762.72 538.30,767.40 539.60,773.92 540.90,775.33 542.20,773.88 543.50,776.73 544.80,779.40 546.10,783.68 547.40,789.83 548.70,794.17 550.00,792.90 551.30,786.70 552.60,781.94 553.90,784.24 555.20,776.54 556.50,775.40 557.80,771.87 559.10,770.34 560.40,763.57 561.70,757.12 563.00,744.55 564.30,724.68 565.60,716.33 566.90,709.93 568.20,705.67 569.50,703.96 570.80,706.58 572.10,709.49 573.40,712.16 574.70,716.30 576.00,719.19 577.30,724.95 578.60,730.36 579.90,734.55 581.20,734.04 582.50,734.08 583.80,732.45 585.10,735.06 586.40,737.08 587.70,736.18 589.00,733.30 590.30,736.26 591.60,738.61 592.90,735.24 594.20,736.05 595.50,746.55 596.80,732.79 598.10,746.40 599.40,748.37 600.70,741.91 602.00,734.93 603.30,726.59 604.60,713.41 605.90,702.33 607.20,696.25 608.50,695.59 609.80,697.88 611.10,705.23 612.40,716.08 613.70,724.61 615.00,729.86 616.30,735.65 617.60,740.23 618.90,745.14 620.20,748.71 621.50,751.66 622.80,753.80 624.10,755.75 625.40,758.99 626.70,762.17 628.00,763.34 629.30,763.46 630.60,763.67 631.90,763.76 633.20,765.65 634.50,753.92 635.80,757.80 637.10,753.87 638.40,739.71 639.70,720.28 641.00,700.11 642.30,689.66 643.60,682.46 644.90,685.99 646.20,687.59 647.51,686.63 648.80,702.08 650.10,715.00 651.40,726.55 652.70,726.58 654.00,724.68 655.30,715.49 656.60,721.02 657.90,730.85 659.20,738.50 660.50,747.79 661.80,749.91 663.10,748.46 664.40,751.14 665.70,753.23 667.00,755.08 668.30,756.21 669.60,754.34 670.90,753.49 672.20,749.82 673.50,746.99 674.80,745.93 676.10,743.37 677.40,741.25 678.70,738.37 680.00,734.24 681.30,729.42 682.60,725.20 683.90,719.72 685.20,713.51 686.50,708.78 687.80,711.38 689.10,712.49 690.40,713.10 691.70,723.29 693.00,731.89 694.30,735.92 695.60,746.36 696.90,752.47 698.20,753.88 699.50,752.74 700.80,751.40 702.10,751.35 703.40,756.98 704.70,755.52 706.00,752.98 707.30,753.54 708.60,754.34 709.90,753.92 711.20,752.92 712.50,751.81 713.80,748.13 715.10,745.27 716.40,744.87 717.70,742.70 719.00,740.97 720.30,738.48 721.60,734.85 722.90,733.86 724.20,731.89 725.50,727.81 726.80,720.10 728.10,716.51 729.40,719.32 730.70,724.39 732.00,724.67 733.30,720.43 734.60,715.87 735.90,712.00 737.20,712.36 738.50,713.15 739.80,714.40 741.10,718.69 742.40,729.16 743.70,740.51 745.00,746.78 746.30,757.14 747.60,762.94 748.90,766.75 750.20,768.69 751.50,769.45 752.80,768.40 754.10,765.52 755.40,761.82 756.70,757.30 758.00,751.81 759.30,746.05 760.60,740.58 761.90,736.44 763.20,732.89 764.50,733.90 765.80,737.73 767.10,741.12 768.40,744.39 769.70,745.80 771.00,745.94 772.30,744.94 773.60,744.64 774.90,745.57 776.20,745.10 777.50,744.25 778.80,741.19 780.10,741.16 781.40,743.19 782.70,744.36 784.00,744.76 785.30,746.01 786.60,746.85 787.90,746.49 789.20,743.43 790.50,747.32 791.80,747.26 793.10,754.61 794.40,747.78 795.70,748.49 797.00,748.18 798.30,745.52 799.60,742.78 800.90,741.84 802.20,742.10 803.50,740.53 804.80,738.55 806.10,739.03 807.40,737.18 808.70,739.79 810.00,743.91 811.30,748.12 812.60,756.00 813.90,751.37 815.20,750.18 816.50,747.66 817.80,744.38 819.10,743.72 820.40,743.79 821.70,739.48 823.00,726.73 824.30,725.00 825.60,732.68 826.90,732.12 828.20,736.64 829.50,741.84 830.80,745.94 832.10,748.36 833.40,751.02 834.70,751.64 836.00,751.65 837.30,755.81 838.60,757.30 839.90,756.61 841.20,754.85 842.50,758.10 843.80,761.23 845.10,764.59 846.40,759.33 847.70,755.40 849.00,755.38 850.30,756.48 851.60,757.44 852.90,757.46 854.20,759.11 855.50,759.62 856.80,757.56 858.10,752.74 859.40,749.92 860.70,742.42 862.00,728.97 863.30,718.32 864.60,713.14 865.90,711.72 867.20,713.68 868.50,713.70 869.80,715.08 871.10,714.79 872.40,720.49 873.70,722.47 875.00,717.47 876.30,729.22 877.60,736.56 878.90,738.56 880.20,742.20 881.50,748.56 882.80,751.58 884.10,753.00 885.40,755.35 886.70,758.28 888.00,757.25 889.30,759.89 890.60,779.00 891.90,802.66 893.20,810.00 894.50,809.96 895.80,809.89 897.10,809.93 898.40,809.70 899.70,809.40 901.00,809.67 902.30,809.74 903.60,809.03 904.90,761.59 906.20,733.52 907.50,801.35 908.80,803.82 910.10,809.57 911.40,808.64 912.70,808.72 914.00,796.47 915.30,784.16 916.60,800.86 917.90,679.89 919.20,795.55 920.50,721.07 921.80,780.83 923.10,750.03 924.40,767.83 925.70,760.07 927.00,760.44 928.30,755.73 929.60,743.78 930.90,758.92 932.20,746.01 933.50,744.87 934.80,759.98 936.10,752.07 937.40,737.90 938.70,750.03 940.00,753.89 941.30,740.87 942.60,744.30 943.90,744.93 945.20,749.52 946.50,753.98 947.80,735.52 949.10,753.24 950.40,754.35 951.70,754.63 953.00,752.10 954.30,753.08 955.60,750.99 956.90,756.11 958.20,754.62 959.50,744.10 960.80,753.90 962.10,755.06 963.40,754.25 964.70,753.60 966.00,753.61 967.30,753.69 968.60,753.32 969.90,753.23 971.20,753.00 972.50,753.08 973.80,752.75 975.10,752.28 976.40,753.12 977.70,752.83 979.00,753.26 980.30,753.16 981.60,754.60 982.90,755.95 984.20,754.84 985.50,750.95 986.80,748.24 988.10,751.62 989.40,749.44 990.70,752.46 992.00,751.80 993.30,751.22 994.60,752.20 995.90,753.26 997.20,753.37 998.50,753.15 999.80,741.20 1001.10,753.23 1002.40,751.33 1003.70,750.22 1005.00,750.47 1006.30,751.32 1007.60,751.70 1008.90,750.79 1010.20,750.37 1011.50,750.27 1012.80,754.44 1014.10,755.04 1015.40,753.80 1016.70,753.85 1018.00,753.03 1019.30,751.77 1020.60,751.98 1021.90,754.05 1023.20,751.33 1024.50,751.69 1025.80,751.03 1027.10,750.99 1028.40,751.19 1029.70,751.43 1031.00,751.97 1032.30,752.06 1033.60,752.94 1034.90,751.96 1036.20,751.54 1037.50,751.97 1038.80,751.83 1040.10,751.84 1041.40,752.37 1042.70,751.79 1044.00,751.95 1045.30,752.05 1046.60,751.64 1047.90,752.10 1049.20,751.88 1050.50,751.89 1051.80,751.95 1053.10,751.99 1054.40,752.31 1055.70,751.90 1057.00,751.96 1058.30,752.00 1059.60,752.31 1060.90,751.81 1062.20,752.13 1063.50,752.09 1064.80,752.23 1066.10,752.20 1067.40,752.25 1068.70,751.90 1070.00,752.08" fill="none" stroke="black" stroke-width="1.5"/>
<text x="87" y="677" text-anchor="end" font-family="monospace" font-size="11">23.9</text>
<text x="87" y="810" text-anchor="end" font-family="monospace" font-size="11">0.504</text>
<text x="95" y="830" font-family="monospace" font-size="11">0 s</text>
<text x="1070" y="830" text-anchor="end" font-family="monospace" font-size="11">15.00 s</text>
</svg>
