<svg xmlns="http://www.w3.org/2000/svg" width="1100" height="910" viewBox="0 0 1100 910">
<rect width="100%" height="100%" fill="white"/>
<text x="95" y="35" font-family="sans-serif" font-size="22" font-weight="bold">track-step-normal-r06</text>
<text x="95" y="62" font-family="sans-serif" font-size="13">track_step_drop | WARN | core=PCA20072-carrier-R0 | surface=unspecified</text>
<text x="95" y="85" font-family="sans-serif" font-size="14">BMI270 accel |a| (m/s²)</text>
<rect x="95" y="95" width="975" height="145" fill="none" stroke="black" stroke-width="1"/>
<polyline points="95.00,218.04 96.30,218.09 97.60,218.10 98.91,218.11 100.20,218.10 101.51,218.11 102.81,218.06 104.11,218.07 105.41,218.07 106.72,218.09 108.02,218.11 109.32,218.11 110.62,218.10 111.92,218.09 113.22,218.10 114.52,218.14 115.83,218.10 117.13,218.10 118.43,218.13 119.73,218.08 121.03,218.09 122.34,218.11 123.64,218.10 124.94,218.07 126.24,218.09 127.54,218.09 128.84,218.08 130.15,218.08 131.45,218.07 132.75,218.06 134.05,218.15 135.35,218.07 136.66,218.10 137.96,218.07 139.26,218.07 140.56,218.03 141.86,218.11 143.16,218.07 144.47,218.12 145.77,218.08 147.07,218.09 148.37,218.08 149.67,218.08 150.97,218.07 152.28,218.10 153.58,218.09 154.88,218.08 156.18,218.08 157.48,218.07 158.79,218.05 160.09,218.10 161.39,218.08 162.69,218.09 163.99,218.05 165.29,218.06 166.59,218.11 167.90,218.09 169.20,218.11 170.50,218.09 171.80,218.09 173.10,218.06 174.41,218.09 175.71,218.08 177.01,218.12 178.31,218.07 179.61,218.05 180.91,218.06 182.21,218.12 183.51,218.11 184.82,218.14 186.12,218.13 187.42,218.11 188.72,218.09 190.03,218.07 191.33,218.05 192.63,218.14 193.93,218.07 195.23,218.09 196.53,218.09 197.84,218.08 199.14,218.10 200.44,218.10 201.74,218.10 203.04,218.05 204.34,218.08 205.65,218.11 206.95,218.10 208.25,218.06 209.55,218.08 210.85,218.09 212.16,218.07 213.46,218.10 214.76,218.13 216.06,218.08 217.36,218.07 218.67,218.08 219.97,218.10 221.27,218.10 222.57,218.09 223.87,218.12 225.17,218.10 226.48,218.04 227.78,218.05 229.08,218.12 230.38,218.03 231.68,218.09 232.98,218.05 234.28,218.08 235.59,218.09 236.89,218.06 238.19,218.06 239.49,218.12 240.79,218.08 242.09,218.11 243.40,218.10 244.70,218.10 246.00,218.09 247.30,218.08 248.60,218.10 249.91,218.08 251.21,218.05 252.51,218.07 253.81,218.07 255.11,218.10 256.41,218.11 257.72,218.08 259.02,218.05 260.32,218.07 261.62,218.08 262.92,218.06 264.22,218.12 265.53,218.06 266.83,218.10 268.13,218.09 269.43,218.08 270.73,218.05 272.03,218.08 273.34,218.12 274.64,218.11 275.94,218.08 277.24,218.12 278.55,218.08 279.87,218.10 281.15,218.04 282.45,218.11 283.78,218.10 285.05,218.09 286.36,218.09 287.68,218.09 288.96,218.10 290.26,218.08 291.57,218.08 292.86,218.06 294.17,218.08 295.47,218.11 296.77,218.04 298.07,218.09 299.37,218.10 300.68,218.11 301.98,218.08 303.28,218.09 304.58,218.11 305.88,218.08 307.18,218.12 308.48,218.10 309.79,218.07 311.09,218.07 312.39,218.07 313.69,218.06 314.99,218.18 316.29,218.08 317.60,218.06 318.90,218.07 320.20,218.09 321.50,218.11 322.80,218.07 324.10,218.12 325.41,218.06 326.71,218.09 328.01,218.09 329.31,218.07 330.61,218.07 331.91,218.10 333.22,218.07 334.52,218.09 335.82,218.12 337.12,218.13 338.42,218.11 339.73,218.08 341.02,218.12 342.33,218.13 343.63,218.07 344.93,218.09 346.24,218.11 347.54,218.04 348.84,218.09 350.14,218.12 351.44,218.06 352.74,218.08 354.04,218.04 355.35,218.08 356.65,218.06 357.95,218.07 359.25,218.09 360.55,218.08 361.85,218.07 363.16,218.08 364.46,218.10 365.76,218.11 367.06,218.06 368.36,218.14 369.67,218.06 370.97,218.06 372.27,218.12 373.57,218.13 374.87,218.13 376.18,218.11 377.48,218.06 378.78,218.13 380.08,218.11 381.38,218.10 382.68,218.06 383.98,218.14 385.29,218.04 386.59,218.03 387.89,218.08 389.19,218.11 390.50,218.12 391.79,218.07 393.10,218.11 394.40,218.11 395.70,218.10 397.00,218.11 398.30,218.09 399.61,218.08 400.91,218.10 402.21,218.06 403.51,218.11 404.81,218.12 406.11,218.09 407.42,218.12 408.72,218.08 410.02,218.06 411.32,218.10 412.62,218.12 413.92,218.11 415.23,218.08 416.53,218.07 417.83,218.06 419.13,218.09 420.44,218.08 421.74,218.08 423.04,218.08 424.34,218.09 425.64,218.12 426.94,218.05 428.24,218.10 429.55,218.08 430.85,218.06 432.15,218.09 433.45,218.10 434.75,218.10 436.05,218.06 437.36,218.09 438.66,218.09 439.96,218.04 441.26,218.09 442.56,218.07 443.86,218.06 445.17,218.09 446.47,218.10 447.77,218.15 449.07,218.07 450.37,218.11 451.68,218.07 452.98,218.05 454.28,218.10 455.58,218.07 456.88,218.09 458.19,218.10 459.49,218.09 460.79,218.10 462.09,218.09 463.39,218.08 464.69,218.09 466.00,218.11 467.30,218.09 468.60,218.06 469.90,157.56 471.20,204.15 472.50,218.26 473.81,208.76 475.11,208.23 476.41,202.36 477.71,215.29 479.01,215.72 480.31,227.46 481.62,233.14 482.92,212.51 484.22,202.30 485.52,209.72 486.82,212.87 488.12,222.57 489.43,221.94 490.73,208.30 492.03,202.22 493.33,182.46 494.63,234.12 495.93,235.00 497.24,235.79 498.54,236.44 499.84,236.92 501.14,237.26 502.44,237.53 503.74,127.33 505.05,223.41 506.35,237.20 507.65,238.09 508.95,237.73 510.25,237.17 511.56,236.59 512.86,236.10 514.16,97.61 515.46,221.32 516.76,240.00 518.06,238.63 519.37,238.15 520.67,95.00 521.97,233.91 523.27,235.28 524.57,231.88 525.88,237.41 527.18,172.57 528.48,233.69 529.78,165.26 531.08,235.73 532.38,163.91 533.69,233.64 534.99,231.64 536.29,206.20 537.59,214.67 538.89,235.28 540.20,182.22 541.50,230.79 542.80,229.31 544.10,220.95 545.40,180.70 546.70,237.36 548.01,211.41 549.31,231.97 550.61,221.41 551.91,237.06 553.21,192.67 554.51,221.50 555.81,224.83 557.12,194.57 558.42,216.20 559.72,219.24 561.02,205.42 562.32,231.13 563.62,232.06 564.93,209.87 566.23,235.88 567.53,195.79 568.83,214.60 570.14,212.44 571.44,224.14 572.74,196.87 574.04,216.85 575.34,211.40 576.64,213.02 577.94,236.56 579.25,210.79 580.55,207.20 581.85,234.39 583.15,232.35 584.45,208.74 585.76,216.44 587.06,228.48 588.36,205.39 589.66,203.24 590.96,222.79 592.26,211.74 593.57,214.63 594.87,232.55 596.17,211.17 597.47,234.50 598.77,214.39 600.08,227.38 601.37,217.40 602.68,215.17 603.98,220.95 605.28,222.48 606.58,207.48 607.88,217.24 609.19,211.88 610.49,217.70 611.79,216.23 613.09,218.77 614.39,216.02 615.70,217.74 617.00,216.33 618.30,227.73 619.60,213.14 620.90,219.41 622.21,228.49 623.50,225.73 624.81,216.23 626.11,224.80 627.41,216.75 628.71,214.55 630.01,218.82 631.32,221.89 632.62,212.93 633.92,222.88 635.22,214.19 636.52,218.74 637.82,213.26 639.13,210.28 640.43,221.87 641.73,215.05 643.03,215.17 644.33,221.27 645.64,218.06 646.94,216.94 648.24,220.26 649.54,224.63 650.84,216.33 652.14,216.81 653.45,220.68 654.75,219.37 656.05,220.09 657.35,219.68 658.65,216.89 659.95,221.32 661.26,219.74 662.56,220.06 663.86,215.38 665.16,220.14 666.46,217.98 667.77,219.11 669.07,217.38 670.37,219.05 671.67,218.92 672.97,217.22 674.27,219.07 675.57,217.97 676.87,217.31 678.18,217.99 679.48,217.80 680.78,217.96 682.08,217.49 683.38,217.59 684.69,217.78 685.99,217.82 687.29,217.48 688.59,217.16 689.89,218.37 691.20,217.38 692.50,218.36 693.80,218.71 695.10,218.44 696.40,218.24 697.71,217.20 699.01,218.25 700.31,218.36 701.61,218.49 702.91,217.94 704.21,217.99 705.52,218.13 706.82,217.71 708.12,218.10 709.42,218.24 710.72,217.95 712.03,218.21 713.32,218.63 714.63,218.75 715.93,218.42 717.23,218.30 718.53,218.31 719.83,218.14 721.14,217.92 722.44,217.69 723.74,217.73 725.04,217.69 726.34,217.73 727.64,217.77 728.95,217.80 730.25,217.95 731.55,218.02 732.85,218.16 734.15,218.20 735.45,218.17 736.76,218.13 738.06,218.11 739.36,217.99 740.66,217.99 741.96,217.99 743.27,218.03 744.57,218.03 745.87,218.07 747.17,218.07 748.47,218.04 749.77,218.01 751.08,218.05 752.38,218.06 753.68,218.05 754.98,218.05 756.28,218.00 757.58,218.03 758.89,218.02 760.19,218.07 761.49,218.01 762.79,218.04 764.09,218.05 765.40,218.05 766.70,218.05 768.00,218.07 769.30,218.04 770.60,218.07 771.91,218.04 773.21,218.05 774.51,218.04 775.81,218.07 777.11,217.98 778.41,218.01 779.72,218.05 781.02,218.02 782.32,218.08 783.62,218.02 784.92,218.02 786.22,218.06 787.52,218.05 788.83,218.03 790.13,218.09 791.43,218.04 792.73,218.02 794.04,218.05 795.33,218.02 796.64,218.04 797.94,218.05 799.24,218.08 800.54,218.01 801.85,218.06 803.15,218.00 804.45,218.04 805.75,218.04 807.05,218.05 808.35,218.03 809.65,218.00 810.96,218.04 812.26,218.05 813.56,218.05 814.86,218.01 816.16,218.03 817.46,218.05 818.77,218.03 820.07,218.05 821.37,218.06 822.67,218.02 823.97,218.05 825.27,218.06 826.58,218.01 827.88,218.04 829.18,218.09 830.48,218.03 831.78,218.08 833.09,218.02 834.39,218.01 835.69,218.02 836.99,218.04 838.29,218.06 839.60,218.03 840.90,218.05 842.20,218.04 843.50,218.03 844.80,218.05 846.10,218.06 847.40,218.00 848.71,218.03 850.01,218.04 851.31,218.03 852.61,218.07 853.92,218.07 855.22,218.03 856.52,218.04 857.82,218.06 859.12,218.05 860.42,218.04 861.72,218.07 863.03,218.05 864.33,218.03 865.63,218.04 866.93,218.00 868.23,218.05 869.54,218.01 870.84,218.05 872.14,218.06 873.44,218.02 874.74,218.05 876.04,218.04 877.34,218.03 878.65,218.05 879.95,218.02 881.25,218.04 882.55,218.06 883.85,218.06 885.15,218.05 886.46,218.01 887.76,218.03 889.06,218.08 890.36,218.06 891.67,218.04 892.97,218.04 894.27,218.02 895.57,218.05 896.87,218.04 898.17,218.05 899.47,218.03 900.78,218.03 902.08,218.05 903.38,218.02 904.68,218.03 905.98,218.04 907.28,218.06 908.59,218.03 909.89,218.04 911.19,218.01 912.49,218.07 913.79,218.04 915.10,218.03 916.40,218.00 917.70,217.99 919.00,218.01 920.30,218.03 921.60,218.06 922.91,218.05 924.21,218.04 925.51,218.04 926.81,218.01 928.11,218.05 929.42,218.03 930.72,218.05 932.02,217.99 933.32,218.02 934.62,218.02 935.92,218.03 937.22,218.05 938.53,218.01 939.83,218.01 941.13,218.00 942.43,218.07 943.74,218.07 945.03,218.09 946.34,218.03 947.64,218.05 948.94,218.04 950.24,218.06 951.54,218.04 952.85,218.06 954.15,218.06 955.45,217.99 956.75,218.05 958.05,218.07 959.35,218.00 960.66,218.01 961.96,218.03 963.26,218.04 964.56,218.02 965.86,218.06 967.17,218.01 968.47,218.03 969.77,217.99 971.07,218.05 972.37,218.05 973.67,218.02 974.97,218.03 976.28,218.06 977.58,218.07 978.88,218.03 980.18,218.02 981.49,218.07 982.79,218.08 984.09,218.04 985.39,218.03 986.69,218.08 987.99,218.05 989.29,218.03 990.60,218.03 991.90,218.07 993.20,218.02 994.50,218.05 995.80,218.07 997.10,218.07 998.41,218.04 999.71,218.01 1001.01,218.06 1002.31,218.03 1003.62,218.00 1004.92,218.05 1006.22,218.04 1007.52,218.00 1008.82,218.05 1010.12,218.08 1011.42,218.04 1012.73,218.00 1014.03,218.04 1015.33,218.03 1016.63,218.02 1017.93,218.03 1019.23,218.03 1020.54,218.03 1021.84,218.06 1023.14,217.98 1024.44,218.07 1025.74,218.05 1027.04,218.04 1028.35,218.00 1029.65,218.07 1030.95,218.06 1032.25,218.06 1033.56,218.07 1034.86,218.00 1036.16,218.05 1037.46,218.03 1038.76,218.06 1040.06,218.05 1041.36,218.02 1042.67,218.06 1043.97,218.05 1045.27,218.01 1046.57,218.08 1047.87,218.06 1049.17,218.04 1050.48,218.08 1051.78,218.02 1053.08,218.04 1054.38,218.04 1055.68,218.01 1056.98,218.08 1058.29,218.10 1059.59,218.04 1060.89,218.06 1062.19,218.04 1063.50,218.01 1064.80,218.07 1066.10,218.05 1067.40,218.05 1068.70,218.02 1070.00,217.99" fill="none" stroke="black" stroke-width="1.5"/>
<text x="87" y="107" text-anchor="end" font-family="monospace" font-size="11">63.5</text>
<text x="87" y="240" text-anchor="end" font-family="monospace" font-size="11">0.382</text>
<text x="95" y="275" font-family="sans-serif" font-size="14">BMI270 gyro |ω| (rad/s)</text>
<rect x="95" y="285" width="975" height="145" fill="none" stroke="black" stroke-width="1"/>
<polyline points="95.00,429.95 96.30,429.92 97.60,429.88 98.91,429.94 100.20,429.98 101.51,429.91 102.81,429.89 104.11,429.97 105.41,429.92 106.72,429.91 108.02,429.96 109.32,429.97 110.62,429.92 111.92,429.91 113.22,429.98 114.52,429.93 115.83,429.93 117.13,429.98 118.43,429.97 119.73,429.91 121.03,429.94 122.34,429.98 123.64,429.94 124.94,429.96 126.24,429.98 127.54,429.95 128.84,429.93 130.15,429.97 131.45,429.96 132.75,429.95 134.05,429.97 135.35,429.98 136.66,429.95 137.96,429.94 139.26,429.98 140.56,429.98 141.86,429.94 143.16,429.98 144.47,429.98 145.77,429.94 147.07,429.95 148.37,429.98 149.67,429.94 150.97,429.97 152.28,429.98 153.58,429.95 154.88,429.94 156.18,429.98 157.48,429.96 158.79,429.95 160.09,429.97 161.39,429.98 162.69,429.95 163.99,429.97 165.29,429.98 166.59,429.96 167.90,429.97 169.20,429.98 170.50,429.95 171.80,429.96 173.10,429.99 174.41,429.97 175.71,429.97 177.01,429.98 178.31,429.96 179.61,429.97 180.91,429.98 182.21,429.97 183.51,429.98 184.82,429.98 186.12,429.97 187.42,429.97 188.72,429.98 190.03,429.99 191.33,429.98 192.63,429.98 193.93,429.98 195.23,429.97 196.53,429.99 197.84,429.99 199.14,429.98 200.44,429.99 201.74,429.98 203.04,429.97 204.34,429.99 205.65,429.98 206.95,429.99 208.25,429.99 209.55,429.98 210.85,429.98 212.16,429.99 213.46,429.98 214.76,429.98 216.06,429.99 217.36,429.97 218.67,429.99 219.97,429.98 221.27,429.98 222.57,429.99 223.87,429.98 225.17,429.98 226.48,429.98 227.78,429.99 229.08,429.99 230.38,429.99 231.68,429.98 232.98,429.98 234.28,429.98 235.59,429.99 236.89,429.98 238.19,429.99 239.49,429.99 240.79,429.98 242.09,429.98 243.40,429.98 244.70,429.98 246.00,430.00 247.30,429.98 248.60,429.98 249.91,429.98 251.21,429.99 252.51,429.98 253.81,429.99 255.11,429.98 256.41,429.98 257.72,429.99 259.02,429.98 260.32,429.98 261.62,429.99 262.92,429.98 264.22,429.99 265.53,429.98 266.83,429.99 268.13,429.99 269.43,429.98 270.73,429.98 272.03,429.99 273.34,429.98 274.64,429.98 275.94,429.99 277.24,429.98 278.55,429.99 279.87,429.98 281.15,429.98 282.45,429.99 283.78,429.98 285.05,429.99 286.36,429.98 287.68,429.98 288.96,429.99 290.26,429.99 291.57,429.99 292.86,429.99 294.17,429.99 295.47,429.98 296.77,429.99 298.07,429.99 299.37,429.98 300.68,429.99 301.98,429.99 303.28,429.98 304.58,429.99 305.88,429.99 307.18,429.98 308.48,429.99 309.79,429.98 311.09,429.99 312.39,429.99 313.69,429.98 314.99,429.99 316.29,429.98 317.60,429.98 318.90,429.99 320.20,429.99 321.50,429.99 322.80,429.99 324.10,429.99 325.41,429.98 326.71,429.99 328.01,429.99 329.31,429.99 330.61,429.99 331.91,429.99 333.22,429.98 334.52,429.98 335.82,429.99 337.12,429.98 338.42,429.99 339.73,429.98 341.02,429.99 342.33,429.99 343.63,429.99 344.93,429.98 346.24,429.99 347.54,429.99 348.84,429.99 350.14,429.98 351.44,429.99 352.74,429.98 354.04,429.98 355.35,429.99 356.65,429.99 357.95,429.98 359.25,429.98 360.55,429.99 361.85,429.98 363.16,429.99 364.46,429.99 365.76,429.99 367.06,429.99 368.36,429.98 369.67,429.98 370.97,429.99 372.27,429.99 373.57,429.98 374.87,429.99 376.18,429.98 377.48,429.98 378.78,430.00 380.08,429.97 381.38,430.00 382.68,429.98 383.98,429.98 385.29,429.99 386.59,429.98 387.89,429.98 389.19,429.99 390.50,429.98 391.79,429.98 393.10,429.99 394.40,429.97 395.70,429.99 397.00,429.98 398.30,429.98 399.61,429.99 400.91,429.98 402.21,429.98 403.51,430.00 404.81,429.98 406.11,429.99 407.42,429.99 408.72,429.97 410.02,430.00 411.32,429.97 412.62,429.98 413.92,429.99 415.23,429.97 416.53,429.99 417.83,429.98 419.13,429.98 420.44,429.99 421.74,429.98 423.04,429.99 424.34,429.99 425.64,429.98 426.94,429.99 428.24,429.99 429.55,429.97 430.85,429.99 432.15,429.98 433.45,429.99 434.75,429.99 436.05,429.98 437.36,429.99 438.66,429.98 439.96,429.99 441.26,429.98 442.56,429.99 443.86,429.99 445.17,429.99 446.47,429.99 447.77,429.98 449.07,429.99 450.37,429.99 451.68,429.98 452.98,429.98 454.28,429.98 455.58,429.99 456.88,429.98 458.19,429.98 459.49,429.98 460.79,429.99 462.09,429.98 463.39,429.99 464.69,429.98 466.00,429.98 467.30,429.99 468.60,429.99 469.90,425.26 471.20,416.77 472.50,395.14 473.81,376.93 475.11,355.90 476.41,338.20 477.71,314.68 479.01,301.59 480.31,292.59 481.62,290.72 482.92,285.67 484.22,285.00 485.52,286.82 486.82,290.54 488.12,295.54 489.43,296.04 490.73,295.20 492.03,291.45 493.33,289.09 494.63,290.50 495.93,290.33 497.24,290.30 498.54,290.27 499.84,290.21 501.14,290.15 502.44,290.11 503.74,290.36 505.05,299.53 506.35,286.42 507.65,287.35 508.95,287.31 510.25,287.31 511.56,287.27 512.86,287.24 514.16,289.31 515.46,310.77 516.76,309.01 518.06,309.03 519.37,309.00 520.67,308.27 521.97,307.91 523.27,307.85 524.57,305.10 525.88,305.99 527.18,310.31 528.48,313.91 529.78,314.57 531.08,317.73 532.38,315.92 533.69,310.89 534.99,314.14 536.29,315.89 537.59,317.18 538.89,321.45 540.20,321.21 541.50,327.40 542.80,326.98 544.10,324.02 545.40,324.35 546.70,323.43 548.01,325.38 549.31,326.44 550.61,329.32 551.91,333.28 553.21,336.58 554.51,336.14 555.81,338.19 557.12,334.71 558.42,334.00 559.72,332.88 561.02,334.08 562.32,337.22 563.62,340.55 564.93,341.19 566.23,344.77 567.53,344.47 568.83,345.77 570.14,345.69 571.44,345.58 572.74,344.57 574.04,345.22 575.34,345.39 576.64,345.73 577.94,346.24 579.25,349.52 580.55,351.56 581.85,355.92 583.15,354.39 584.45,356.39 585.76,355.94 587.06,357.49 588.36,357.02 589.66,356.22 590.96,357.45 592.26,354.59 593.57,354.91 594.87,357.86 596.17,360.42 597.47,361.04 598.77,362.85 600.08,365.19 601.37,368.61 602.68,369.87 603.98,371.38 605.28,372.49 606.58,371.53 607.88,372.76 609.19,371.09 610.49,370.77 611.79,371.24 613.09,371.94 614.39,372.11 615.70,373.88 617.00,374.94 618.30,376.96 619.60,377.86 620.90,377.69 622.21,379.75 623.50,381.37 624.81,381.83 626.11,385.29 627.41,386.02 628.71,385.18 630.01,385.55 631.32,384.99 632.62,385.34 633.92,385.76 635.22,385.49 636.52,386.94 637.82,387.33 639.13,386.48 640.43,389.15 641.73,388.23 643.03,389.64 644.33,390.87 645.64,391.44 646.94,392.77 648.24,393.56 649.54,396.02 650.84,395.15 652.14,394.43 653.45,395.29 654.75,398.10 656.05,400.28 657.35,402.73 658.65,403.68 659.95,405.87 661.26,407.40 662.56,407.19 663.86,405.92 665.16,407.55 666.46,408.66 667.77,409.50 669.07,410.92 670.37,411.29 671.67,411.17 672.97,410.64 674.27,409.84 675.57,409.77 676.87,409.76 678.18,410.04 679.48,410.21 680.78,410.00 682.08,409.23 683.38,409.01 684.69,409.69 685.99,410.14 687.29,410.56 688.59,410.30 689.89,411.40 691.20,412.70 692.50,414.05 693.80,415.41 695.10,415.90 696.40,416.14 697.71,415.42 699.01,415.51 700.31,416.77 701.61,418.31 702.91,418.90 704.21,418.90 705.52,418.75 706.82,418.58 708.12,418.65 709.42,418.95 710.72,419.08 712.03,419.61 713.32,421.24 714.63,422.92 715.93,423.83 717.23,424.04 718.53,424.12 719.83,424.20 721.14,424.33 722.44,424.80 723.74,425.89 725.04,427.33 726.34,428.80 727.64,429.56 728.95,428.44 730.25,427.68 731.55,427.44 732.85,427.66 734.15,428.13 735.45,428.60 736.76,428.92 738.06,429.14 739.36,429.36 740.66,429.54 741.96,429.57 743.27,429.51 744.57,429.56 745.87,429.75 747.17,429.97 748.47,429.83 749.77,429.78 751.08,429.84 752.38,429.94 753.68,429.97 754.98,429.93 756.28,429.95 757.58,429.97 758.89,429.94 760.19,429.94 761.49,429.97 762.79,429.98 764.09,429.98 765.40,430.00 766.70,429.97 768.00,429.97 769.30,429.97 770.60,429.98 771.91,429.99 773.21,429.99 774.51,429.97 775.81,429.97 777.11,429.97 778.41,429.98 779.72,429.99 781.02,429.98 782.32,429.98 783.62,429.98 784.92,429.98 786.22,429.98 787.52,429.99 788.83,429.98 790.13,429.98 791.43,429.98 792.73,429.98 794.04,429.98 795.33,429.98 796.64,429.98 797.94,429.98 799.24,429.98 800.54,429.98 801.85,429.99 803.15,429.98 804.45,429.98 805.75,429.98 807.05,429.98 808.35,429.98 809.65,429.98 810.96,429.99 812.26,429.98 813.56,429.98 814.86,429.98 816.16,429.98 817.46,429.98 818.77,429.98 820.07,429.98 821.37,429.98 822.67,429.98 823.97,429.98 825.27,429.98 826.58,429.99 827.88,429.99 829.18,429.98 830.48,429.98 831.78,429.98 833.09,429.98 834.39,429.98 835.69,429.98 836.99,429.98 838.29,429.98 839.60,429.98 840.90,429.98 842.20,429.98 843.50,429.98 844.80,429.98 846.10,429.98 847.40,429.98 848.71,429.98 850.01,429.98 851.31,429.98 852.61,429.98 853.92,429.98 855.22,429.98 856.52,429.98 857.82,429.98 859.12,429.98 860.42,429.98 861.72,429.98 863.03,429.98 864.33,429.98 865.63,429.98 866.93,429.98 868.23,429.98 869.54,429.98 870.84,429.98 872.14,429.98 873.44,429.99 874.74,429.98 876.04,429.98 877.34,429.98 878.65,429.99 879.95,429.98 881.25,429.99 882.55,429.98 883.85,429.98 885.15,429.99 886.46,429.98 887.76,429.98 889.06,429.99 890.36,429.98 891.67,429.98 892.97,429.98 894.27,429.99 895.57,429.98 896.87,429.98 898.17,429.98 899.47,429.98 900.78,429.98 902.08,429.98 903.38,429.98 904.68,429.99 905.98,429.98 907.28,429.99 908.59,429.98 909.89,429.98 911.19,429.98 912.49,429.99 913.79,429.98 915.10,429.98 916.40,429.98 917.70,429.98 919.00,429.98 920.30,429.99 921.60,429.99 922.91,429.98 924.21,429.98 925.51,429.98 926.81,429.98 928.11,429.99 929.42,429.99 930.72,429.98 932.02,429.98 933.32,429.98 934.62,429.99 935.92,429.98 937.22,429.98 938.53,429.99 939.83,429.98 941.13,429.98 942.43,429.99 943.74,429.97 945.03,429.98 946.34,429.99 947.64,429.98 948.94,429.98 950.24,429.98 951.54,429.98 952.85,429.98 954.15,429.99 955.45,429.98 956.75,429.98 958.05,429.98 959.35,429.98 960.66,429.98 961.96,429.99 963.26,429.98 964.56,429.99 965.86,429.98 967.17,429.98 968.47,429.98 969.77,429.98 971.07,429.99 972.37,429.98 973.67,429.98 974.97,429.99 976.28,429.98 977.58,429.99 978.88,429.98 980.18,429.98 981.49,429.98 982.79,429.98 984.09,429.98 985.39,429.98 986.69,429.98 987.99,429.98 989.29,429.98 990.60,429.98 991.90,429.98 993.20,429.98 994.50,429.98 995.80,429.98 997.10,429.99 998.41,429.99 999.71,429.98 1001.01,429.99 1002.31,429.98 1003.62,429.98 1004.92,429.98 1006.22,429.98 1007.52,429.98 1008.82,429.99 1010.12,429.98 1011.42,429.98 1012.73,429.98 1014.03,429.98 1015.33,429.98 1016.63,429.98 1017.93,429.98 1019.23,429.98 1020.54,429.98 1021.84,429.99 1023.14,429.98 1024.44,429.98 1025.74,429.98 1027.04,429.98 1028.35,429.98 1029.65,429.98 1030.95,429.98 1032.25,429.98 1033.56,429.98 1034.86,429.98 1036.16,429.98 1037.46,429.98 1038.76,429.98 1040.06,429.98 1041.36,429.98 1042.67,429.98 1043.97,429.99 1045.27,429.98 1046.57,429.98 1047.87,429.99 1049.17,429.98 1050.48,429.98 1051.78,429.99 1053.08,429.99 1054.38,429.99 1055.68,429.98 1056.98,429.98 1058.29,429.99 1059.59,429.98 1060.89,429.98 1062.19,429.98 1063.50,429.98 1064.80,429.98 1066.10,429.98 1067.40,429.98 1068.70,429.98 1070.00,429.98" fill="none" stroke="black" stroke-width="1.5"/>
<text x="87" y="297" text-anchor="end" font-family="monospace" font-size="11">44.2</text>
<text x="87" y="430" text-anchor="end" font-family="monospace" font-size="11">0.00353</text>
<text x="95" y="465" font-family="sans-serif" font-size="14">Jerk magnitude (m/s³)</text>
<rect x="95" y="475" width="975" height="145" fill="none" stroke="black" stroke-width="1"/>
<polyline points="95.00,620.00 96.30,619.95 97.60,619.98 98.91,619.99 100.20,619.99 101.51,619.99 102.81,619.95 104.11,619.98 105.41,620.00 106.72,619.98 108.02,619.98 109.32,620.00 110.62,619.99 111.92,619.99 113.22,619.99 114.52,619.96 115.83,619.96 117.13,620.00 118.43,619.97 119.73,619.95 121.03,619.98 122.34,619.99 123.64,619.99 124.94,619.98 126.24,619.98 127.54,619.99 128.84,619.99 130.15,620.00 131.45,619.98 132.75,619.99 134.05,619.91 135.35,619.92 136.66,619.97 137.96,619.97 139.26,619.99 140.56,619.96 141.86,619.93 143.16,619.96 144.47,619.95 145.77,619.97 147.07,619.99 148.37,619.99 149.67,620.00 150.97,620.00 152.28,619.97 153.58,619.99 154.88,619.99 156.18,620.00 157.48,619.99 158.79,619.98 160.09,619.95 161.39,619.98 162.69,619.99 163.99,619.95 165.29,619.99 166.59,619.94 167.90,619.98 169.20,619.99 170.50,619.99 171.80,620.00 173.10,619.96 174.41,619.96 175.71,619.99 177.01,619.96 178.31,619.95 179.61,619.98 180.91,619.99 182.21,619.94 183.51,619.99 184.82,619.97 186.12,619.99 187.42,619.98 188.72,619.98 190.03,619.99 191.33,619.98 192.63,619.91 193.93,619.93 195.23,619.98 196.53,620.00 197.84,620.00 199.14,619.99 200.44,619.99 201.74,620.00 203.04,619.95 204.34,619.97 205.65,619.96 206.95,619.98 208.25,619.96 209.55,619.99 210.85,619.99 212.16,619.98 213.46,619.96 214.76,619.97 216.06,619.95 217.36,620.00 218.67,619.99 219.97,619.98 221.27,620.00 222.57,620.00 223.87,619.98 225.17,619.98 226.48,619.94 227.78,619.99 229.08,619.94 230.38,619.92 231.68,619.94 232.98,619.96 234.28,619.97 235.59,619.99 236.89,619.97 238.19,620.00 239.49,619.94 240.79,619.96 242.09,619.98 243.40,619.99 244.70,620.00 246.00,619.99 247.30,619.99 248.60,619.98 249.91,619.98 251.21,619.98 252.51,619.98 253.81,619.99 255.11,619.97 256.41,619.99 257.72,619.97 259.02,619.97 260.32,619.98 261.62,619.99 262.92,619.98 264.22,619.94 265.53,619.94 266.83,619.96 268.13,619.98 269.43,619.99 270.73,619.97 272.03,619.97 273.34,619.96 274.64,619.99 275.94,619.97 277.24,619.96 278.55,619.96 279.87,619.98 281.15,619.94 282.45,619.93 283.78,619.99 285.05,620.00 286.36,620.00 287.68,620.00 288.96,619.99 290.26,619.98 291.57,620.00 292.86,619.99 294.17,619.99 295.47,619.97 296.77,619.93 298.07,619.95 299.37,619.99 300.68,619.99 301.98,619.96 303.28,619.98 304.58,619.98 305.88,619.97 307.18,619.96 308.48,619.98 309.79,619.97 311.09,620.00 312.39,619.99 313.69,619.99 314.99,619.88 316.29,619.90 317.60,619.98 318.90,619.99 320.20,619.98 321.50,619.98 322.80,619.96 324.10,619.96 325.41,619.95 326.71,619.98 328.01,620.00 329.31,619.99 330.61,620.00 331.91,619.97 333.22,619.96 334.52,619.98 335.82,619.97 337.12,619.99 338.42,619.98 339.73,619.96 341.02,619.96 342.33,619.99 343.63,619.94 344.93,619.98 346.24,619.97 347.54,619.93 348.84,619.95 350.14,619.97 351.44,619.94 352.74,619.98 354.04,619.96 355.35,619.96 356.65,619.98 357.95,619.99 359.25,619.98 360.55,619.99 361.85,619.99 363.16,619.99 364.46,619.98 365.76,619.99 367.06,619.95 368.36,619.92 369.67,619.92 370.97,620.00 372.27,619.94 373.57,620.00 374.87,619.99 376.18,619.98 377.48,619.95 378.78,619.93 380.08,619.98 381.38,619.99 382.68,619.96 383.98,619.92 385.29,619.90 386.59,619.99 387.89,619.94 389.19,619.97 390.50,619.99 391.79,619.94 393.10,619.95 394.40,619.99 395.70,619.99 397.00,619.99 398.30,619.98 399.61,619.98 400.91,619.98 402.21,619.96 403.51,619.95 404.81,619.99 406.11,619.96 407.42,619.96 408.72,619.96 410.02,619.98 411.32,619.96 412.62,619.99 413.92,620.00 415.23,619.96 416.53,619.99 417.83,619.99 419.13,619.97 420.44,619.99 421.74,619.99 423.04,619.99 424.34,619.99 425.64,619.97 426.94,619.93 428.24,619.95 429.55,619.98 430.85,619.98 432.15,619.97 433.45,619.99 434.75,620.00 436.05,619.96 437.36,619.97 438.66,620.00 439.96,619.95 441.26,619.95 442.56,619.98 443.86,619.99 445.17,619.98 446.47,619.99 447.77,619.95 449.07,619.93 450.37,619.96 451.68,619.96 452.98,619.98 454.28,619.96 455.58,619.98 456.88,619.99 458.19,619.99 459.49,619.98 460.79,619.99 462.09,619.99 463.39,619.99 464.69,619.99 466.00,619.98 467.30,619.98 468.60,619.97 469.90,558.72 471.20,572.80 472.50,605.73 473.81,610.38 475.11,619.46 476.41,614.04 477.71,606.90 479.01,619.56 480.31,608.13 481.62,614.25 482.92,599.10 484.22,609.65 485.52,612.47 486.82,616.81 488.12,610.16 489.43,619.36 490.73,606.21 492.03,613.84 493.33,599.99 494.63,567.68 495.93,619.10 497.24,619.21 498.54,619.34 499.84,619.52 501.14,619.65 502.44,619.73 503.74,508.38 505.05,522.84 506.35,606.02 507.65,619.10 508.95,619.63 510.25,619.44 511.56,619.41 512.86,619.50 514.16,479.73 515.46,494.70 516.76,601.05 518.06,618.62 519.37,619.51 520.67,475.00 521.97,479.07 523.27,618.61 524.57,616.55 525.88,614.40 527.18,554.22 528.48,558.20 529.78,550.68 531.08,548.50 532.38,547.25 533.69,549.48 534.99,617.97 536.29,594.24 537.59,611.42 538.89,599.12 540.20,566.42 541.50,570.64 542.80,618.51 544.10,611.53 545.40,579.17 546.70,562.61 548.01,593.76 549.31,599.14 550.61,609.30 551.91,604.15 553.21,575.04 554.51,590.85 555.81,616.62 557.12,589.34 558.42,598.08 559.72,616.92 561.02,606.02 562.32,593.92 563.62,619.06 564.93,597.52 566.23,593.69 567.53,579.39 568.83,600.92 570.14,617.81 571.44,608.13 572.74,592.38 574.04,599.76 575.34,614.49 576.64,618.36 577.94,596.15 579.25,593.94 580.55,616.36 581.85,592.46 583.15,617.93 584.45,596.12 585.76,612.20 587.06,607.80 588.36,596.69 589.66,617.81 590.96,600.20 592.26,608.81 593.57,617.08 594.87,601.89 596.17,598.28 597.47,596.38 598.77,599.66 600.08,606.84 601.37,609.84 602.68,617.75 603.98,614.14 605.28,618.46 606.58,604.79 607.88,610.12 609.19,614.58 610.49,614.10 611.79,618.51 613.09,617.42 614.39,617.21 615.70,618.26 617.00,618.57 618.30,608.45 619.60,605.22 620.90,613.66 622.21,610.80 623.50,617.20 624.81,610.38 626.11,611.33 627.41,611.84 628.71,617.76 630.01,615.67 631.32,616.90 632.62,610.93 633.92,609.91 635.22,611.20 636.52,615.40 637.82,614.44 639.13,616.99 640.43,608.28 641.73,613.09 643.03,619.87 644.33,613.82 645.64,616.75 646.94,618.86 648.24,616.64 649.54,615.57 650.84,611.57 652.14,619.51 653.45,616.09 654.75,618.67 656.05,619.27 657.35,619.59 658.65,617.17 659.95,615.51 661.26,618.40 662.56,619.67 663.86,615.26 665.16,615.17 666.46,617.81 667.77,618.85 669.07,618.24 670.37,618.31 671.67,619.87 672.97,618.28 674.27,618.14 675.57,618.89 676.87,619.33 678.18,619.31 679.48,619.81 680.78,619.83 682.08,619.52 683.38,619.90 684.69,619.80 685.99,619.96 687.29,619.66 688.59,619.67 689.89,618.78 691.20,619.00 692.50,619.01 693.80,619.65 695.10,619.73 696.40,619.80 697.71,618.94 699.01,618.94 700.31,619.88 701.61,619.87 702.91,619.44 704.21,619.95 705.52,619.86 706.82,619.58 708.12,619.61 709.42,619.86 710.72,619.71 712.03,619.74 713.32,619.57 714.63,619.88 715.93,619.67 717.23,619.88 718.53,619.99 719.83,619.83 721.14,619.78 722.44,619.76 723.74,619.96 725.04,619.96 726.34,619.95 727.64,619.97 728.95,619.97 730.25,619.86 731.55,619.92 732.85,619.86 734.15,619.95 735.45,619.97 736.76,619.96 738.06,619.98 739.36,619.88 740.66,619.99 741.96,620.00 743.27,619.95 744.57,620.00 745.87,619.96 747.17,620.00 748.47,619.97 749.77,619.97 751.08,619.96 752.38,619.99 753.68,619.99 754.98,619.99 756.28,619.95 757.58,619.97 758.89,619.99 760.19,619.95 761.49,619.94 762.79,619.97 764.09,619.99 765.40,620.00 766.70,620.00 768.00,619.98 769.30,619.97 770.60,619.97 771.91,619.97 773.21,619.99 774.51,619.99 775.81,619.97 777.11,619.90 778.41,619.97 779.72,619.96 781.02,619.97 782.32,619.94 783.62,619.95 784.92,619.99 786.22,619.96 787.52,619.99 788.83,619.98 790.13,619.95 791.43,619.95 792.73,619.98 794.04,619.96 795.33,619.97 796.64,619.99 797.94,619.98 799.24,619.97 800.54,619.93 801.85,619.95 803.15,619.93 804.45,619.96 805.75,620.00 807.05,619.98 808.35,619.98 809.65,619.97 810.96,619.96 812.26,619.99 813.56,620.00 814.86,619.97 816.16,619.98 817.46,619.98 818.77,619.98 820.07,619.98 821.37,619.99 822.67,619.95 823.97,619.97 825.27,619.99 826.58,619.95 827.88,619.97 829.18,619.95 830.48,619.94 831.78,619.95 833.09,619.95 834.39,619.98 835.69,619.98 836.99,619.99 838.29,619.97 839.60,619.97 840.90,619.98 842.20,619.99 843.50,619.99 844.80,619.98 846.10,619.98 847.40,619.93 848.71,619.97 850.01,619.99 851.31,619.99 852.61,619.96 853.92,619.99 855.22,619.96 856.52,619.99 857.82,619.98 859.12,619.99 860.42,620.00 861.72,619.98 863.03,619.98 864.33,619.98 865.63,619.99 866.93,619.96 868.23,619.95 869.54,619.96 870.84,619.97 872.14,619.98 873.44,619.96 874.74,619.97 876.04,619.99 877.34,619.99 878.65,619.99 879.95,619.97 881.25,619.98 882.55,619.98 883.85,620.00 885.15,619.99 886.46,619.97 887.76,619.99 889.06,619.95 890.36,619.98 891.67,619.97 892.97,620.00 894.27,619.98 895.57,619.97 896.87,619.99 898.17,619.99 899.47,619.99 900.78,619.99 902.08,619.98 903.38,619.97 904.68,619.99 905.98,619.99 907.28,619.98 908.59,619.97 909.89,619.99 911.19,619.97 912.49,619.94 913.79,619.97 915.10,619.99 916.40,619.97 917.70,619.98 919.00,619.97 920.30,619.98 921.60,619.97 922.91,619.99 924.21,619.99 925.51,620.00 926.81,619.97 928.11,619.95 929.42,619.98 930.72,619.98 932.02,619.94 933.32,619.97 934.62,620.00 935.92,619.99 937.22,619.98 938.53,619.96 939.83,619.99 941.13,619.99 942.43,619.94 943.74,620.00 945.03,619.98 946.34,619.94 947.64,619.98 948.94,619.99 950.24,619.98 951.54,619.98 952.85,619.99 954.15,620.00 955.45,619.93 956.75,619.94 958.05,619.98 959.35,619.92 960.66,619.99 961.96,619.98 963.26,619.98 964.56,619.97 965.86,619.95 967.17,619.94 968.47,619.97 969.77,619.96 971.07,619.94 972.37,620.00 973.67,619.97 974.97,619.98 976.28,619.97 977.58,619.99 978.88,619.96 980.18,619.99 981.49,619.95 982.79,619.99 984.09,619.96 985.39,619.99 986.69,619.96 987.99,619.98 989.29,619.97 990.60,619.99 991.90,619.97 993.20,619.96 994.50,619.97 995.80,619.98 997.10,620.00 998.41,619.97 999.71,619.97 1001.01,619.95 1002.31,619.97 1003.62,619.97 1004.92,619.95 1006.22,619.99 1007.52,619.96 1008.82,619.95 1010.12,619.97 1011.42,619.96 1012.73,619.96 1014.03,619.96 1015.33,619.99 1016.63,619.99 1017.93,619.98 1019.23,620.00 1020.54,620.00 1021.84,619.97 1023.14,619.92 1024.44,619.91 1025.74,619.98 1027.04,619.99 1028.35,619.96 1029.65,619.92 1030.95,619.98 1032.25,620.00 1033.56,619.98 1034.86,619.93 1036.16,619.96 1037.46,619.98 1038.76,619.97 1040.06,620.00 1041.36,619.96 1042.67,619.95 1043.97,619.99 1045.27,619.95 1046.57,619.92 1047.87,619.98 1049.17,619.98 1050.48,619.96 1051.78,619.94 1053.08,619.98 1054.38,620.00 1055.68,619.97 1056.98,619.92 1058.29,619.98 1059.59,619.94 1060.89,619.98 1062.19,619.98 1063.50,619.97 1064.80,619.93 1066.10,619.97 1067.40,620.00 1068.70,619.97 1070.00,619.96" fill="none" stroke="black" stroke-width="1.5"/>
<text x="87" y="487" text-anchor="end" font-family="monospace" font-size="11">3.11e+03</text>
<text x="87" y="620" text-anchor="end" font-family="monospace" font-size="11">0</text>
<text x="95" y="655" font-family="sans-serif" font-size="14">ADXL367 accel |a| (m/s²)</text>
<rect x="95" y="665" width="975" height="145" fill="none" stroke="black" stroke-width="1"/>
<polyline points="95.00,772.18 96.30,772.42 97.60,772.55 98.91,772.37 100.20,772.42 101.51,772.51 102.81,772.52 104.11,772.40 105.41,772.48 106.72,772.44 108.02,772.44 109.32,772.24 110.62,772.53 111.92,772.51 113.22,772.57 114.52,772.40 115.83,772.43 117.13,772.35 118.43,772.57 119.73,772.57 121.03,772.70 122.34,772.25 123.64,772.49 124.94,772.30 126.24,772.50 127.54,772.46 128.84,772.49 130.15,772.60 131.45,772.00 132.75,772.13 134.05,772.23 135.35,772.51 136.66,772.54 137.96,772.63 139.26,772.53 140.56,772.63 141.86,772.52 143.16,772.24 144.47,772.55 145.77,772.53 147.07,772.69 148.37,772.40 149.67,772.48 150.97,772.36 152.28,772.18 153.58,772.49 154.88,772.46 156.18,772.68 157.48,772.62 158.79,772.88 160.09,772.46 161.39,772.48 162.69,772.40 163.99,772.40 165.29,772.64 166.59,772.39 167.90,772.56 169.20,772.49 170.50,772.36 171.80,772.41 173.10,772.46 174.41,772.39 175.71,772.29 177.01,772.29 178.31,772.58 179.61,772.24 180.91,772.46 182.21,772.27 183.51,772.33 184.82,772.66 186.12,772.34 187.42,772.51 188.72,772.40 190.03,772.31 191.33,772.50 192.63,772.22 193.93,772.58 195.23,772.43 196.53,772.64 197.84,772.29 199.14,772.21 200.44,772.54 201.74,772.24 203.04,772.48 204.34,772.18 205.65,772.67 206.95,772.78 208.25,772.45 209.55,772.69 210.85,772.85 212.16,772.40 213.46,772.51 214.76,772.28 216.06,772.40 217.36,772.46 218.67,772.48 219.97,772.49 221.27,772.63 222.57,772.66 223.87,772.25 225.17,772.54 226.48,772.49 227.78,772.42 229.08,772.41 230.38,772.43 231.68,772.35 232.98,772.37 234.28,772.62 235.59,772.61 236.89,772.51 238.19,772.59 239.49,772.63 240.79,772.45 242.09,772.55 243.40,772.46 244.70,772.62 246.00,772.58 247.30,772.41 248.60,772.54 249.91,772.61 251.21,772.60 252.51,772.29 253.81,772.24 255.11,772.59 256.41,772.61 257.72,772.26 259.02,772.34 260.32,772.30 261.62,772.55 262.92,772.45 264.22,772.44 265.53,772.45 266.83,772.23 268.13,772.50 269.43,772.79 270.73,772.60 272.03,772.40 273.34,772.54 274.64,772.46 275.94,772.42 277.24,772.38 278.55,772.35 279.87,772.47 281.15,772.30 282.45,772.49 283.78,772.42 285.05,772.45 286.36,772.24 287.68,772.49 288.96,772.35 290.26,772.41 291.57,772.18 292.86,772.56 294.17,772.41 295.47,772.37 296.77,772.47 298.07,772.70 299.37,772.38 300.68,772.27 301.98,772.47 303.28,772.40 304.58,772.39 305.88,772.62 307.18,772.36 308.48,772.53 309.79,772.26 311.09,772.62 312.39,772.26 313.69,772.65 314.99,772.25 316.29,772.63 317.60,772.66 318.90,772.68 320.20,772.33 321.50,772.57 322.80,772.12 324.10,772.45 325.41,772.47 326.71,772.52 328.01,772.62 329.31,772.67 330.61,772.41 331.91,772.38 333.22,772.40 334.52,772.43 335.82,772.68 337.12,772.70 338.42,772.38 339.73,772.55 341.02,772.57 342.33,772.06 343.63,772.59 344.93,772.65 346.24,772.44 347.54,772.74 348.84,772.75 350.14,772.55 351.44,772.44 352.74,772.49 354.04,772.57 355.35,772.37 356.65,772.28 357.95,772.16 359.25,772.31 360.55,772.40 361.85,772.51 363.16,772.47 364.46,772.22 365.76,772.46 367.06,772.53 368.36,772.75 369.67,772.34 370.97,772.74 372.27,772.54 373.57,772.41 374.87,772.50 376.18,772.64 377.48,772.30 378.78,772.48 380.08,772.28 381.38,772.46 382.68,772.42 383.98,772.35 385.29,772.42 386.59,772.47 387.89,772.47 389.19,772.60 390.50,772.44 391.79,772.45 393.10,772.52 394.40,772.65 395.70,772.30 397.00,772.54 398.30,772.46 399.61,772.25 400.91,772.41 402.21,772.45 403.51,772.39 404.81,772.63 406.11,772.44 407.42,772.53 408.72,772.40 410.02,772.55 411.32,772.69 412.62,772.60 413.92,772.62 415.23,772.49 416.53,772.44 417.83,772.39 419.13,772.68 420.44,772.45 421.74,772.88 423.04,772.46 424.34,772.42 425.64,772.27 426.94,772.48 428.24,772.46 429.55,772.36 430.85,772.23 432.15,772.40 433.45,772.49 434.75,772.58 436.05,772.47 437.36,772.28 438.66,772.50 439.96,772.88 441.26,772.41 442.56,772.38 443.86,772.48 445.17,772.35 446.47,772.55 447.77,772.79 449.07,772.49 450.37,772.51 451.68,772.54 452.98,772.42 454.28,772.49 455.58,772.24 456.88,772.58 458.19,772.42 459.49,772.45 460.79,772.38 462.09,772.24 463.39,772.61 464.69,772.49 466.00,772.56 467.30,772.28 468.60,772.50 469.90,778.18 471.20,717.22 472.50,791.69 473.81,743.56 475.11,741.13 476.41,790.97 477.71,796.21 479.01,752.36 480.31,716.30 481.62,706.83 482.92,704.25 484.22,708.29 485.52,717.16 486.82,792.29 488.12,750.10 489.43,728.90 490.73,725.33 492.03,715.21 493.33,676.90 494.63,717.45 495.93,717.24 497.24,717.07 498.54,716.67 499.84,716.40 501.14,716.18 502.44,716.47 503.74,716.82 505.05,713.70 506.35,713.72 507.65,713.54 508.95,713.22 510.25,713.65 511.56,714.19 512.86,714.29 514.16,715.89 515.46,742.21 516.76,743.45 518.06,743.49 519.37,743.77 520.67,738.59 521.97,741.70 523.27,669.84 524.57,739.51 525.88,745.85 527.18,757.55 528.48,749.85 529.78,751.16 531.08,754.34 532.38,668.61 533.69,688.80 534.99,747.94 536.29,716.84 537.59,755.96 538.89,766.47 540.20,703.48 541.50,766.99 542.80,765.89 544.10,742.25 545.40,665.00 546.70,758.97 548.01,764.30 549.31,720.24 550.61,791.36 551.91,794.44 553.21,791.19 554.51,760.16 555.81,765.91 557.12,717.77 558.42,706.86 559.72,746.75 561.02,682.65 562.32,757.22 563.62,778.73 564.93,766.55 566.23,796.31 567.53,751.48 568.83,782.07 570.14,767.54 571.44,771.64 572.74,712.14 574.04,745.42 575.34,722.33 576.64,716.53 577.94,778.68 579.25,786.13 580.55,741.74 581.85,788.09 583.15,810.00 584.45,795.73 585.76,764.79 587.06,793.62 588.36,755.27 589.66,726.65 590.96,765.23 592.26,734.08 593.57,741.74 594.87,770.94 596.17,726.93 597.47,794.46 598.77,763.89 600.08,791.18 601.37,789.04 602.68,776.05 603.98,784.04 605.28,804.45 606.58,765.24 607.88,759.62 609.19,756.84 610.49,760.65 611.79,759.47 613.09,759.17 614.39,752.47 615.70,755.48 617.00,758.47 618.30,777.76 619.60,755.20 620.90,783.20 622.21,791.87 623.50,785.38 624.81,779.73 626.11,784.34 627.41,784.36 628.71,779.75 630.01,794.81 631.32,785.25 632.62,767.23 633.92,788.35 635.22,767.56 636.52,774.39 637.82,763.07 639.13,748.31 640.43,774.05 641.73,755.66 643.03,760.49 644.33,770.54 645.64,760.80 646.94,768.82 648.24,771.42 649.54,776.87 650.84,765.49 652.14,770.41 653.45,777.06 654.75,773.42 656.05,776.89 657.35,778.06 658.65,772.07 659.95,781.14 661.26,777.24 662.56,776.05 663.86,766.01 665.16,775.09 666.46,771.06 667.77,775.03 669.07,769.89 670.37,773.94 671.67,775.19 672.97,772.87 674.27,774.19 675.57,772.11 676.87,772.47 678.18,770.53 679.48,773.46 680.78,773.16 682.08,771.96 683.38,770.33 684.69,769.20 685.99,771.42 687.29,771.65 688.59,770.14 689.89,771.35 691.20,769.10 692.50,770.81 693.80,771.50 695.10,770.82 696.40,770.94 697.71,768.91 699.01,769.38 700.31,771.07 701.61,772.14 702.91,771.06 704.21,770.89 705.52,771.46 706.82,770.48 708.12,771.39 709.42,771.42 710.72,770.40 712.03,771.17 713.32,772.59 714.63,773.06 715.93,772.75 717.23,772.63 718.53,772.23 719.83,772.77 721.14,772.31 722.44,772.34 723.74,772.68 725.04,772.53 726.34,772.54 727.64,772.51 728.95,772.25 730.25,772.27 731.55,772.15 732.85,772.11 734.15,772.24 735.45,772.08 736.76,771.71 738.06,771.72 739.36,771.61 740.66,771.56 741.96,772.19 743.27,771.92 744.57,772.22 745.87,771.99 747.17,772.05 748.47,772.23 749.77,771.77 751.08,771.63 752.38,771.93 753.68,771.95 754.98,771.87 756.28,772.04 757.58,772.20 758.89,771.83 760.19,771.96 761.49,772.29 762.79,771.96 764.09,771.84 765.40,771.90 766.70,772.08 768.00,771.92 769.30,772.02 770.60,771.72 771.91,772.18 773.21,772.02 774.51,772.15 775.81,771.93 777.11,771.96 778.41,772.20 779.72,771.95 781.02,772.20 782.32,772.18 783.62,771.98 784.92,772.20 786.22,772.10 787.52,772.02 788.83,772.09 790.13,771.89 791.43,771.97 792.73,772.04 794.04,772.03 795.33,772.16 796.64,772.02 797.94,772.02 799.24,772.02 800.54,771.77 801.85,772.08 803.15,772.03 804.45,772.15 805.75,771.88 807.05,772.08 808.35,772.03 809.65,772.01 810.96,771.95 812.26,772.02 813.56,772.01 814.86,772.12 816.16,772.01 817.46,771.74 818.77,772.17 820.07,771.95 821.37,772.02 822.67,771.91 823.97,772.03 825.27,772.18 826.58,772.19 827.88,772.11 829.18,772.04 830.48,772.06 831.78,771.94 833.09,771.89 834.39,772.15 835.69,772.06 836.99,772.10 838.29,772.10 839.60,772.02 840.90,772.05 842.20,772.05 843.50,771.79 844.80,772.09 846.10,772.10 847.40,771.90 848.71,771.93 850.01,772.10 851.31,772.05 852.61,772.37 853.92,772.02 855.22,772.10 856.52,771.85 857.82,771.96 859.12,771.91 860.42,772.12 861.72,772.08 863.03,771.91 864.33,772.24 865.63,771.98 866.93,772.13 868.23,771.98 869.54,771.96 870.84,771.97 872.14,772.06 873.44,772.17 874.74,772.02 876.04,771.99 877.34,771.95 878.65,771.89 879.95,772.04 881.25,772.16 882.55,772.02 883.85,772.05 885.15,771.92 886.46,772.01 887.76,771.84 889.06,772.06 890.36,771.96 891.67,771.89 892.97,772.11 894.27,771.96 895.57,771.98 896.87,771.68 898.17,771.88 899.47,772.17 900.78,772.04 902.08,772.00 903.38,772.30 904.68,772.10 905.98,772.08 907.28,772.14 908.59,772.18 909.89,772.27 911.19,772.08 912.49,772.24 913.79,772.17 915.10,771.88 916.40,771.92 917.70,772.08 919.00,771.77 920.30,771.87 921.60,771.84 922.91,772.18 924.21,771.98 925.51,772.19 926.81,771.80 928.11,772.17 929.42,771.99 930.72,772.28 932.02,771.86 933.32,772.07 934.62,772.01 935.92,772.26 937.22,772.26 938.53,772.01 939.83,771.68 941.13,772.01 942.43,772.21 943.74,772.26 945.03,772.13 946.34,772.03 947.64,772.18 948.94,771.98 950.24,772.01 951.54,772.27 952.85,771.93 954.15,771.97 955.45,771.94 956.75,771.64 958.05,771.89 959.35,771.97 960.66,772.18 961.96,772.14 963.26,771.90 964.56,772.14 965.86,771.89 967.17,772.16 968.47,771.84 969.77,771.99 971.07,772.38 972.37,771.97 973.67,772.13 974.97,772.18 976.28,771.94 977.58,771.97 978.88,772.18 980.18,771.95 981.49,772.03 982.79,772.31 984.09,771.96 985.39,772.25 986.69,771.92 987.99,771.96 989.29,772.09 990.60,772.10 991.90,771.80 993.20,771.82 994.50,771.96 995.80,772.15 997.10,771.73 998.41,771.90 999.71,772.12 1001.01,771.91 1002.31,772.09 1003.62,772.07 1004.92,772.16 1006.22,771.75 1007.52,772.04 1008.82,771.92 1010.12,771.79 1011.42,772.04 1012.73,771.95 1014.03,772.13 1015.33,771.97 1016.63,772.09 1017.93,771.87 1019.23,772.05 1020.54,772.21 1021.84,772.04 1023.14,772.12 1024.44,771.94 1025.74,772.19 1027.04,772.26 1028.35,772.11 1029.65,772.02 1030.95,772.15 1032.25,772.05 1033.56,772.01 1034.86,771.96 1036.16,772.05 1037.46,772.27 1038.76,772.14 1040.06,771.94 1041.36,771.83 1042.67,772.08 1043.97,772.00 1045.27,772.24 1046.57,772.14 1047.87,772.17 1049.17,771.79 1050.48,772.10 1051.78,772.07 1053.08,772.16 1054.38,771.87 1055.68,772.24 1056.98,772.36 1058.29,772.18 1059.59,771.96 1060.89,771.85 1062.19,771.97 1063.50,772.04 1064.80,771.91 1066.10,771.77 1067.40,772.14 1068.70,771.99 1070.00,772.03" fill="none" stroke="black" stroke-width="1.5"/>
<text x="87" y="677" text-anchor="end" font-family="monospace" font-size="11">30.8</text>
<text x="87" y="810" text-anchor="end" font-family="monospace" font-size="11">2.26</text>
<text x="95" y="830" font-family="monospace" font-size="11">0 s</text>
<text x="1070" y="830" text-anchor="end" font-family="monospace" font-size="11">14.98 s</text>
</svg>
