<svg xmlns="http://www.w3.org/2000/svg" width="1120" height="474" viewBox="0 0 1120 474">
<rect width="100%" height="100%" fill="white"/>
<text x="40" y="38" font-family='sans-serif' font-size="24" font-weight="bold">Frozen V0 decisions by post-freeze label</text>
<rect x="600" y="48" width="16" height="16" fill="#3b7d44"/>
<text x="622" y="61" font-family='sans-serif' font-size="12">PICKUP</text>
<rect x="745" y="48" width="16" height="16" fill="#557a95"/>
<text x="767" y="61" font-family='sans-serif' font-size="12">NOT_PICKUP</text>
<rect x="890" y="48" width="16" height="16" fill="#999999"/>
<text x="912" y="61" font-family='sans-serif' font-size="12">UNKNOWN</text>
<text x="288" y="101" text-anchor="end" font-family='sans-serif' font-size="13">handling</text>
<rect x="300.00" y="80" width="700.00" height="28" fill="#557a95"/>
<text x="650.00" y="100" text-anchor="middle" font-family='sans-serif' font-size="12" fill="white">10</text>
<text x="288" y="143" text-anchor="end" font-family='sans-serif' font-size="13">pickup_carry</text>
<rect x="300.00" y="122" width="700.00" height="28" fill="#3b7d44"/>
<text x="650.00" y="142" text-anchor="middle" font-family='sans-serif' font-size="12" fill="white">10</text>
<text x="288" y="185" text-anchor="end" font-family='sans-serif' font-size="13">pickup_drop</text>
<rect x="300.00" y="164" width="700.00" height="28" fill="#3b7d44"/>
<text x="650.00" y="184" text-anchor="middle" font-family='sans-serif' font-size="12" fill="white">10</text>
<text x="288" y="227" text-anchor="end" font-family='sans-serif' font-size="13">putt_gentle</text>
<rect x="300.00" y="206" width="63.64" height="28" fill="#557a95"/>
<text x="331.82" y="226" text-anchor="middle" font-family='sans-serif' font-size="12" fill="white">1</text>
<rect x="363.64" y="206" width="636.36" height="28" fill="#999999"/>
<text x="681.82" y="226" text-anchor="middle" font-family='sans-serif' font-size="12" fill="white">10</text>
<text x="288" y="269" text-anchor="end" font-family='sans-serif' font-size="13">putt_rail_collision</text>
<rect x="300.00" y="248" width="700.00" height="28" fill="#999999"/>
<text x="650.00" y="268" text-anchor="middle" font-family='sans-serif' font-size="12" fill="white">10</text>
<text x="288" y="311" text-anchor="end" font-family='sans-serif' font-size="13">rolling_pickup</text>
<rect x="300.00" y="290" width="700.00" height="28" fill="#999999"/>
<text x="650.00" y="310" text-anchor="middle" font-family='sans-serif' font-size="12" fill="white">10</text>
<text x="288" y="353" text-anchor="end" font-family='sans-serif' font-size="13">track_step_drop</text>
<rect x="300.00" y="332" width="636.36" height="28" fill="#557a95"/>
<text x="618.18" y="352" text-anchor="middle" font-family='sans-serif' font-size="12" fill="white">10</text>
<rect x="936.36" y="332" width="63.64" height="28" fill="#999999"/>
<text x="968.18" y="352" text-anchor="middle" font-family='sans-serif' font-size="12" fill="white">1</text>
<text x="650.0" y="449" text-anchor="middle" font-family='sans-serif' font-size="14">Fraction within label (UNKNOWN retained)</text>
</svg>
