<svg xmlns="http://www.w3.org/2000/svg" width="1120" height="801" viewBox="0 0 1120 801">
<rect width="100%" height="100%" fill="white"/>
<text x="40" y="38" font-family='sans-serif' font-size="24" font-weight="bold">Exploratory flat episode confusion: random_forest</text>
<text x="568.0" y="78" text-anchor="middle" font-family='sans-serif' font-size="14">Predicted</text>
<text x="45" y="393.0" transform="rotate(-90 45 393.0)" text-anchor="middle" font-family='sans-serif' font-size="14">Truth</text>
<text x="316.0" y="93" transform="rotate(-35 316.0 93)" text-anchor="start" font-family='sans-serif' font-size="11">COLLISION_RAIL</text>
<text x="268" y="145.0" text-anchor="end" font-family='sans-serif' font-size="11">COLLISION_RAIL</text>
<text x="388.0" y="93" transform="rotate(-35 388.0 93)" text-anchor="start" font-family='sans-serif' font-size="11">HANDLING_NO_LIFT</text>
<text x="268" y="217.0" text-anchor="end" font-family='sans-serif' font-size="11">HANDLING_NO_LIFT</text>
<text x="460.0" y="93" transform="rotate(-35 460.0 93)" text-anchor="start" font-family='sans-serif' font-size="11">IMPACT_TAP</text>
<text x="268" y="289.0" text-anchor="end" font-family='sans-serif' font-size="11">IMPACT_TAP</text>
<text x="532.0" y="93" transform="rotate(-35 532.0 93)" text-anchor="start" font-family='sans-serif' font-size="11">PICKED_UP_CARRIED</text>
<text x="268" y="361.0" text-anchor="end" font-family='sans-serif' font-size="11">PICKED_UP_CARRIED</text>
<text x="604.0" y="93" transform="rotate(-35 604.0 93)" text-anchor="start" font-family='sans-serif' font-size="11">ROLLING</text>
<text x="268" y="433.0" text-anchor="end" font-family='sans-serif' font-size="11">ROLLING</text>
<text x="676.0" y="93" transform="rotate(-35 676.0 93)" text-anchor="start" font-family='sans-serif' font-size="11">ROLLING_PICKUP</text>
<text x="268" y="505.0" text-anchor="end" font-family='sans-serif' font-size="11">ROLLING_PICKUP</text>
<text x="748.0" y="93" transform="rotate(-35 748.0 93)" text-anchor="start" font-family='sans-serif' font-size="11">STATIONARY</text>
<text x="268" y="577.0" text-anchor="end" font-family='sans-serif' font-size="11">STATIONARY</text>
<text x="820.0" y="93" transform="rotate(-35 820.0 93)" text-anchor="start" font-family='sans-serif' font-size="11">TRACK_STEP_DROP</text>
<text x="268" y="649.0" text-anchor="end" font-family='sans-serif' font-size="11">TRACK_STEP_DROP</text>
<rect x="280" y="105" width="72" height="72" fill="rgb(205,205,205)" stroke="white"/>
<text x="316.0" y="146.0" text-anchor="middle" font-family='sans-serif' font-size="15">9</text>
<rect x="352" y="105" width="72" height="72" fill="rgb(245,245,245)" stroke="white"/>
<text x="388.0" y="146.0" text-anchor="middle" font-family='sans-serif' font-size="15">0</text>
<rect x="424" y="105" width="72" height="72" fill="rgb(245,245,245)" stroke="white"/>
<text x="460.0" y="146.0" text-anchor="middle" font-family='sans-serif' font-size="15">0</text>
<rect x="496" y="105" width="72" height="72" fill="rgb(245,245,245)" stroke="white"/>
<text x="532.0" y="146.0" text-anchor="middle" font-family='sans-serif' font-size="15">0</text>
<rect x="568" y="105" width="72" height="72" fill="rgb(241,241,241)" stroke="white"/>
<text x="604.0" y="146.0" text-anchor="middle" font-family='sans-serif' font-size="15">1</text>
<rect x="640" y="105" width="72" height="72" fill="rgb(245,245,245)" stroke="white"/>
<text x="676.0" y="146.0" text-anchor="middle" font-family='sans-serif' font-size="15">0</text>
<rect x="712" y="105" width="72" height="72" fill="rgb(245,245,245)" stroke="white"/>
<text x="748.0" y="146.0" text-anchor="middle" font-family='sans-serif' font-size="15">0</text>
<rect x="784" y="105" width="72" height="72" fill="rgb(245,245,245)" stroke="white"/>
<text x="820.0" y="146.0" text-anchor="middle" font-family='sans-serif' font-size="15">0</text>
<rect x="280" y="177" width="72" height="72" fill="rgb(245,245,245)" stroke="white"/>
<text x="316.0" y="218.0" text-anchor="middle" font-family='sans-serif' font-size="15">0</text>
<rect x="352" y="177" width="72" height="72" fill="rgb(200,200,200)" stroke="white"/>
<text x="388.0" y="218.0" text-anchor="middle" font-family='sans-serif' font-size="15">10</text>
<rect x="424" y="177" width="72" height="72" fill="rgb(245,245,245)" stroke="white"/>
<text x="460.0" y="218.0" text-anchor="middle" font-family='sans-serif' font-size="15">0</text>
<rect x="496" y="177" width="72" height="72" fill="rgb(232,232,232)" stroke="white"/>
<text x="532.0" y="218.0" text-anchor="middle" font-family='sans-serif' font-size="15">3</text>
<rect x="568" y="177" width="72" height="72" fill="rgb(245,245,245)" stroke="white"/>
<text x="604.0" y="218.0" text-anchor="middle" font-family='sans-serif' font-size="15">0</text>
<rect x="640" y="177" width="72" height="72" fill="rgb(245,245,245)" stroke="white"/>
<text x="676.0" y="218.0" text-anchor="middle" font-family='sans-serif' font-size="15">0</text>
<rect x="712" y="177" width="72" height="72" fill="rgb(241,241,241)" stroke="white"/>
<text x="748.0" y="218.0" text-anchor="middle" font-family='sans-serif' font-size="15">1</text>
<rect x="784" y="177" width="72" height="72" fill="rgb(245,245,245)" stroke="white"/>
<text x="820.0" y="218.0" text-anchor="middle" font-family='sans-serif' font-size="15">0</text>
<rect x="280" y="249" width="72" height="72" fill="rgb(245,245,245)" stroke="white"/>
<text x="316.0" y="290.0" text-anchor="middle" font-family='sans-serif' font-size="15">0</text>
<rect x="352" y="249" width="72" height="72" fill="rgb(245,245,245)" stroke="white"/>
<text x="388.0" y="290.0" text-anchor="middle" font-family='sans-serif' font-size="15">0</text>
<rect x="424" y="249" width="72" height="72" fill="rgb(245,245,245)" stroke="white"/>
<text x="460.0" y="290.0" text-anchor="middle" font-family='sans-serif' font-size="15">0</text>
<rect x="496" y="249" width="72" height="72" fill="rgb(241,241,241)" stroke="white"/>
<text x="532.0" y="290.0" text-anchor="middle" font-family='sans-serif' font-size="15">1</text>
<rect x="568" y="249" width="72" height="72" fill="rgb(245,245,245)" stroke="white"/>
<text x="604.0" y="290.0" text-anchor="middle" font-family='sans-serif' font-size="15">0</text>
<rect x="640" y="249" width="72" height="72" fill="rgb(245,245,245)" stroke="white"/>
<text x="676.0" y="290.0" text-anchor="middle" font-family='sans-serif' font-size="15">0</text>
<rect x="712" y="249" width="72" height="72" fill="rgb(245,245,245)" stroke="white"/>
<text x="748.0" y="290.0" text-anchor="middle" font-family='sans-serif' font-size="15">0</text>
<rect x="784" y="249" width="72" height="72" fill="rgb(245,245,245)" stroke="white"/>
<text x="820.0" y="290.0" text-anchor="middle" font-family='sans-serif' font-size="15">0</text>
<rect x="280" y="321" width="72" height="72" fill="rgb(245,245,245)" stroke="white"/>
<text x="316.0" y="362.0" text-anchor="middle" font-family='sans-serif' font-size="15">0</text>
<rect x="352" y="321" width="72" height="72" fill="rgb(241,241,241)" stroke="white"/>
<text x="388.0" y="362.0" text-anchor="middle" font-family='sans-serif' font-size="15">1</text>
<rect x="424" y="321" width="72" height="72" fill="rgb(236,236,236)" stroke="white"/>
<text x="460.0" y="362.0" text-anchor="middle" font-family='sans-serif' font-size="15">2</text>
<rect x="496" y="321" width="72" height="72" fill="rgb(95,95,95)" stroke="white"/>
<text x="532.0" y="362.0" text-anchor="middle" font-family='sans-serif' font-size="15">33</text>
<rect x="568" y="321" width="72" height="72" fill="rgb(245,245,245)" stroke="white"/>
<text x="604.0" y="362.0" text-anchor="middle" font-family='sans-serif' font-size="15">0</text>
<rect x="640" y="321" width="72" height="72" fill="rgb(245,245,245)" stroke="white"/>
<text x="676.0" y="362.0" text-anchor="middle" font-family='sans-serif' font-size="15">0</text>
<rect x="712" y="321" width="72" height="72" fill="rgb(232,232,232)" stroke="white"/>
<text x="748.0" y="362.0" text-anchor="middle" font-family='sans-serif' font-size="15">3</text>
<rect x="784" y="321" width="72" height="72" fill="rgb(245,245,245)" stroke="white"/>
<text x="820.0" y="362.0" text-anchor="middle" font-family='sans-serif' font-size="15">0</text>
<rect x="280" y="393" width="72" height="72" fill="rgb(245,245,245)" stroke="white"/>
<text x="316.0" y="434.0" text-anchor="middle" font-family='sans-serif' font-size="15">0</text>
<rect x="352" y="393" width="72" height="72" fill="rgb(245,245,245)" stroke="white"/>
<text x="388.0" y="434.0" text-anchor="middle" font-family='sans-serif' font-size="15">0</text>
<rect x="424" y="393" width="72" height="72" fill="rgb(245,245,245)" stroke="white"/>
<text x="460.0" y="434.0" text-anchor="middle" font-family='sans-serif' font-size="15">0</text>
<rect x="496" y="393" width="72" height="72" fill="rgb(241,241,241)" stroke="white"/>
<text x="532.0" y="434.0" text-anchor="middle" font-family='sans-serif' font-size="15">1</text>
<rect x="568" y="393" width="72" height="72" fill="rgb(182,182,182)" stroke="white"/>
<text x="604.0" y="434.0" text-anchor="middle" font-family='sans-serif' font-size="15">14</text>
<rect x="640" y="393" width="72" height="72" fill="rgb(245,245,245)" stroke="white"/>
<text x="676.0" y="434.0" text-anchor="middle" font-family='sans-serif' font-size="15">0</text>
<rect x="712" y="393" width="72" height="72" fill="rgb(241,241,241)" stroke="white"/>
<text x="748.0" y="434.0" text-anchor="middle" font-family='sans-serif' font-size="15">1</text>
<rect x="784" y="393" width="72" height="72" fill="rgb(236,236,236)" stroke="white"/>
<text x="820.0" y="434.0" text-anchor="middle" font-family='sans-serif' font-size="15">2</text>
<rect x="280" y="465" width="72" height="72" fill="rgb(245,245,245)" stroke="white"/>
<text x="316.0" y="506.0" text-anchor="middle" font-family='sans-serif' font-size="15">0</text>
<rect x="352" y="465" width="72" height="72" fill="rgb(245,245,245)" stroke="white"/>
<text x="388.0" y="506.0" text-anchor="middle" font-family='sans-serif' font-size="15">0</text>
<rect x="424" y="465" width="72" height="72" fill="rgb(245,245,245)" stroke="white"/>
<text x="460.0" y="506.0" text-anchor="middle" font-family='sans-serif' font-size="15">0</text>
<rect x="496" y="465" width="72" height="72" fill="rgb(245,245,245)" stroke="white"/>
<text x="532.0" y="506.0" text-anchor="middle" font-family='sans-serif' font-size="15">0</text>
<rect x="568" y="465" width="72" height="72" fill="rgb(245,245,245)" stroke="white"/>
<text x="604.0" y="506.0" text-anchor="middle" font-family='sans-serif' font-size="15">0</text>
<rect x="640" y="465" width="72" height="72" fill="rgb(200,200,200)" stroke="white"/>
<text x="676.0" y="506.0" text-anchor="middle" font-family='sans-serif' font-size="15">10</text>
<rect x="712" y="465" width="72" height="72" fill="rgb(245,245,245)" stroke="white"/>
<text x="748.0" y="506.0" text-anchor="middle" font-family='sans-serif' font-size="15">0</text>
<rect x="784" y="465" width="72" height="72" fill="rgb(245,245,245)" stroke="white"/>
<text x="820.0" y="506.0" text-anchor="middle" font-family='sans-serif' font-size="15">0</text>
<rect x="280" y="537" width="72" height="72" fill="rgb(245,245,245)" stroke="white"/>
<text x="316.0" y="578.0" text-anchor="middle" font-family='sans-serif' font-size="15">0</text>
<rect x="352" y="537" width="72" height="72" fill="rgb(245,245,245)" stroke="white"/>
<text x="388.0" y="578.0" text-anchor="middle" font-family='sans-serif' font-size="15">0</text>
<rect x="424" y="537" width="72" height="72" fill="rgb(245,245,245)" stroke="white"/>
<text x="460.0" y="578.0" text-anchor="middle" font-family='sans-serif' font-size="15">0</text>
<rect x="496" y="537" width="72" height="72" fill="rgb(245,245,245)" stroke="white"/>
<text x="532.0" y="578.0" text-anchor="middle" font-family='sans-serif' font-size="15">0</text>
<rect x="568" y="537" width="72" height="72" fill="rgb(245,245,245)" stroke="white"/>
<text x="604.0" y="578.0" text-anchor="middle" font-family='sans-serif' font-size="15">0</text>
<rect x="640" y="537" width="72" height="72" fill="rgb(245,245,245)" stroke="white"/>
<text x="676.0" y="578.0" text-anchor="middle" font-family='sans-serif' font-size="15">0</text>
<rect x="712" y="537" width="72" height="72" fill="rgb(155,155,155)" stroke="white"/>
<text x="748.0" y="578.0" text-anchor="middle" font-family='sans-serif' font-size="15">20</text>
<rect x="784" y="537" width="72" height="72" fill="rgb(245,245,245)" stroke="white"/>
<text x="820.0" y="578.0" text-anchor="middle" font-family='sans-serif' font-size="15">0</text>
<rect x="280" y="609" width="72" height="72" fill="rgb(245,245,245)" stroke="white"/>
<text x="316.0" y="650.0" text-anchor="middle" font-family='sans-serif' font-size="15">0</text>
<rect x="352" y="609" width="72" height="72" fill="rgb(241,241,241)" stroke="white"/>
<text x="388.0" y="650.0" text-anchor="middle" font-family='sans-serif' font-size="15">1</text>
<rect x="424" y="609" width="72" height="72" fill="rgb(245,245,245)" stroke="white"/>
<text x="460.0" y="650.0" text-anchor="middle" font-family='sans-serif' font-size="15">0</text>
<rect x="496" y="609" width="72" height="72" fill="rgb(245,245,245)" stroke="white"/>
<text x="532.0" y="650.0" text-anchor="middle" font-family='sans-serif' font-size="15">0</text>
<rect x="568" y="609" width="72" height="72" fill="rgb(232,232,232)" stroke="white"/>
<text x="604.0" y="650.0" text-anchor="middle" font-family='sans-serif' font-size="15">3</text>
<rect x="640" y="609" width="72" height="72" fill="rgb(245,245,245)" stroke="white"/>
<text x="676.0" y="650.0" text-anchor="middle" font-family='sans-serif' font-size="15">0</text>
<rect x="712" y="609" width="72" height="72" fill="rgb(245,245,245)" stroke="white"/>
<text x="748.0" y="650.0" text-anchor="middle" font-family='sans-serif' font-size="15">0</text>
<rect x="784" y="609" width="72" height="72" fill="rgb(218,218,218)" stroke="white"/>
<text x="820.0" y="650.0" text-anchor="middle" font-family='sans-serif' font-size="15">6</text>
</svg>
